<?xml version="1.0" standalone="no"?>
<!DOCTYPE svg PUBLIC "-//W3C//DTD SVG 1.1//EN" "http://www.w3.org/Graphics/SVG/1.1/DTD/svg11.dtd" >
<svg xmlns="http://www.w3.org/2000/svg">
<metadata>Generated by IcoMoon</metadata>
<defs>
<font id="icomoon" horiz-adv-x="1024">
<font-face units-per-em="1024" ascent="960" descent="-64" />
<missing-glyph horiz-adv-x="1024" />
<glyph unicode="&#x20;" horiz-adv-x="512" d="" />
<glyph unicode="&#xe900;" glyph-name="menu-1" d="M982.636 489.364h-941.272c-22.844 0-41.364-18.518-41.364-41.364s18.52-41.364 41.364-41.364h941.272c22.846 0 41.364 18.518 41.364 41.364 0 22.844-18.518 41.364-41.364 41.364zM982.636 803.122h-941.272c-22.844 0-41.364-18.52-41.364-41.364s18.52-41.364 41.364-41.364h941.272c22.846 0 41.364 18.52 41.364 41.364s-18.518 41.364-41.364 41.364zM982.636 175.606h-941.272c-22.844 0-41.364-18.518-41.364-41.364s18.52-41.364 41.364-41.364h941.272c22.846 0 41.364 18.518 41.364 41.364s-18.518 41.364-41.364 41.364z" />
<glyph unicode="&#xe901;" glyph-name="menu" d="M0 898.56h1024v-40.96h-1024v40.96zM0 611.84h1024v-40.96h-1024v40.96zM0 325.12h1024v-40.96h-1024v40.96zM0 38.4h1024v-40.96h-1024v40.96z" />
<glyph unicode="&#xe902;" glyph-name="instagram-symbol" d="M985.343 921.327c-25.779 25.786-56.671 38.673-92.661 38.673h-761.34c-36.002 0-66.885-12.892-92.671-38.673-25.781-25.774-38.668-56.662-38.668-92.657v-761.333c0-35.99 12.885-66.885 38.668-92.661 25.786-25.779 56.676-38.675 92.671-38.675h761.331c35.983 0 66.885 12.896 92.664 38.675 25.786 25.777 38.661 56.671 38.661 92.661v761.333c-0.002 36.002-12.875 66.873-38.654 92.657zM367.68 591.005c40.219 38.883 88.554 58.334 144.999 58.334 56.882 0 105.434-19.451 145.662-58.334 40.228-38.89 60.33-85.895 60.33-141.004 0-55.102-20.102-102.109-60.33-140.988-40.228-38.899-88.764-58.348-145.662-58.348-56.443 0-104.773 19.465-144.999 58.348-40.228 38.883-60.34 85.885-60.34 140.988 0 55.109 20.112 102.111 60.34 141.004zM908.016 94.659c0-11.547-4.012-21.209-12.004-28.992-8.016-7.776-17.557-11.666-28.679-11.666h-712.655c-11.554 0-21.228 3.89-28.999 11.666-7.783 7.766-11.671 17.445-11.671 28.992v432.015h93.997c-8.885-28.004-13.328-57.12-13.328-87.335 0-85.353 31.107-158.117 93.329-218.352 62.229-60.211 137.116-90.331 224.671-90.331 57.778 0 111.108 13.784 160.013 41.337 48.889 27.57 87.531 65.005 115.996 112.344 28.448 47.336 42.671 99.006 42.671 155 0 30.215-4.46 59.324-13.345 87.335h90.009v-432.015h-0.005zM908.016 690.008c0-12.889-4.444-23.78-13.347-32.667-8.885-8.894-19.768-13.335-32.665-13.335h-115.996c-12.882 0-23.782 4.444-32.667 13.335-8.887 8.887-13.328 19.778-13.328 32.667v109.99c0 12.446 4.441 23.222 13.328 32.336 8.887 9.109 19.787 13.669 32.667 13.669h115.996c12.896 0 23.782-4.558 32.665-13.669 8.901-9.114 13.347-19.89 13.347-32.336v-109.99z" />
<glyph unicode="&#xe903;" glyph-name="linkedin-logo" d="M1024 337.332v-378.579h-219.476v353.224c0 88.733-31.745 149.29-111.188 149.29-60.645 0-96.735-40.811-112.612-80.288-5.79-14.113-7.28-33.757-7.28-53.512v-368.714h-219.55c0 0 2.957 598.246 0 660.229h219.529v-93.585c-0.445-0.7-1.024-1.455-1.443-2.133h1.443v2.133c29.167 44.922 81.255 109.095 197.845 109.095 144.447 0.002 252.733-94.363 252.733-297.16zM124.235 937.245c-75.108 0-124.235-49.265-124.235-114.050 0-63.373 47.705-114.133 121.321-114.133h1.467c76.562 0 124.177 50.75 124.177 114.133-1.443 64.785-47.615 114.050-122.73 114.050zM13.039-41.247h219.467v660.229h-219.467v-660.229z" />
<glyph unicode="&#xe904;" glyph-name="home" d="M1013.11 543.872l-485.392 355.394c-9.36 6.852-22.076 6.852-31.432 0l-485.396-355.394c-11.856-8.682-14.432-25.33-5.75-37.186s25.332-14.428 37.186-5.75l469.674 343.888 469.674-343.886c4.736-3.47 10.24-5.14 15.696-5.14 8.192 0 16.276 3.77 21.488 10.89 8.684 11.854 6.108 28.502-5.748 37.184zM884.492 494.914c-14.692 0-26.606-11.912-26.606-26.606v-423.498h-212.844v231.172c0 73.36-59.684 133.040-133.040 133.040s-133.040-59.684-133.040-133.040v-231.174h-212.846v423.498c0 14.694-11.914 26.606-26.606 26.606s-26.606-11.912-26.606-26.606v-450.106c0-14.694 11.914-26.606 26.606-26.606h266.058c13.992 0 25.442 10.81 26.502 24.534 0.064 0.622 0.104 1.302 0.104 2.072v257.78c0 44.018 35.81 79.828 79.828 79.828s79.828-35.812 79.828-79.828v-257.78c0-0.766 0.040-1.434 0.104-2.048 1.048-13.734 12.502-24.558 26.502-24.558h266.058c14.694 0 26.606 11.912 26.606 26.606v450.106c-0.002 14.696-11.914 26.608-26.608 26.608z" />
<glyph unicode="&#xe905;" glyph-name="cross-symbol-1" d="M665.056 448.018l327.217 327.217c42.279 42.277 42.279 110.78 0 153.057-42.277 42.277-110.78 42.277-153.055 0l-327.217-327.254-327.217 327.217c-42.277 42.277-110.78 42.277-153.057 0s-42.277-110.78 0-153.057l327.217-327.217-327.217-327.217c-42.277-42.277-42.277-110.78 0-153.055 42.277-42.279 110.78-42.279 153.057 0l327.217 327.215 327.217-327.215c42.277-42.279 110.78-42.279 153.055 0 42.279 42.277 42.279 110.78 0 153.055l-327.217 327.254z" />
<glyph unicode="&#xe906;" glyph-name="cross-symbol" d="M596.987 448.013l409.4 409.398c23.481 23.481 23.481 61.527 0 84.958-23.432 23.481-61.477 23.481-84.958 0l-409.4-409.398-409.497 409.4c-23.432 23.481-61.527 23.481-84.958 0-23.432-23.432-23.432-61.479 0-84.958l409.448-409.4-409.448-409.45c-23.432-23.432-23.432-61.527 0-84.958 11.74-11.741 27.134-17.586 42.479-17.586 15.394 0 30.739 5.845 42.479 17.586l409.448 409.448 409.398-409.448c11.741-11.741 27.135-17.586 42.481-17.586 15.392 0 30.786 5.845 42.479 17.586 23.481 23.481 23.481 61.527 0 84.958l-409.351 409.45z" />
<glyph unicode="&#xe907;" glyph-name="fax" d="M251.17 583.246h289.812v-38.642h-289.812v38.642zM251.17 448h386.416v-38.642h-386.416v38.642zM251.17 312.754h386.416v-38.642h-386.416v38.642zM929.774 892.378h-830.718c-53.292 0-99.056-40.972-99.056-94.294v-347.566c0-53.32 43.34-96.708 96.604-96.708 21.83 0 43.472 7.548 57.962 19.798v-348.25c0-10.67 11.066-21.736 21.736-21.736h676.226c10.67 0 16.906 11.066 16.906 21.736v348.25c19.32-12.25 36.132-19.798 57.962-19.798 53.264 0 96.604 43.386 96.604 96.708v347.566c0 53.322-40.934 94.294-94.226 94.294zM830.792 450.34v-408.076h-637.584v601.358c0 10.652 11.142 16.906 21.878 16.906h598.66c10.736 0 17.048-6.254 17.048-16.906v-193.282zM985.358 450.518c0-32.018-26-58.066-57.962-58.066s-57.962 25.972-57.962 57.886v210.188h38.642v38.642h-792.15v-38.642h38.642v-210.188c0-31.916-26-57.886-57.962-57.886s-57.962 26.048-57.962 58.066v347.566c0 32.018 28.434 55.652 60.416 55.652h830.718c31.982 0 55.584-23.632 55.584-55.652v-347.566z" />
<glyph unicode="&#xe908;" glyph-name="mail" d="M941.451 84.026h-858.903c-45.501 0-82.549 37.015-82.549 82.549v562.883c0 45.534 37.048 82.549 82.549 82.549h858.903c45.501 0 82.549-37.015 82.549-82.549v-562.883c0-45.534-37.048-82.549-82.549-82.549zM82.549 778.987c-27.307 0-49.529-22.222-49.529-49.529v-562.883c0-27.307 22.222-49.529 49.529-49.529h858.903c27.307 0 49.529 22.222 49.529 49.529v562.883c0 27.307-22.222 49.529-49.529 49.529h-858.903zM512 365.055c-21.958 0-43.916 7.297-60.624 21.859l-421.956 367.738c-6.868 6.010-7.594 16.411-1.585 23.279 6.010 6.934 16.444 7.594 23.312 1.618l421.923-367.738c21.132-18.392 56.793-18.359 77.86 0l421.824 367.705c6.835 6.043 17.236 5.349 23.312-1.618 6.010-6.868 5.283-17.269-1.585-23.279l-421.857-367.672c-16.708-14.595-38.666-21.892-60.624-21.892z" />
<glyph unicode="&#xe909;" glyph-name="phone-call" d="M822.996-64c-42.605 0-94.062 10.677-150.65 32.031-124.061 46.772-259.040 139.215-380.069 260.245-121.064 121.064-213.507 256.077-260.314 380.138-42.536 112.798-42.639 205.379-0.241 247.742 6.096 6.096 12.296 12.64 18.702 19.391 38.679 40.676 82.386 86.45 140.317 84.383 39.918-1.653 78.597-26.452 118.206-75.738 117.034-145.553 64.269-197.422 3.203-257.559l-10.78-10.677c-9.988-9.988-28.863-56.244 146.724-231.83 57.312-57.312 106.185-99.262 145.243-124.646 24.592-15.981 68.574-40.16 86.622-22.112l10.849 10.953c60.067 60.928 111.937 113.521 257.386-3.41 49.287-39.608 74.051-78.253 75.704-118.24 2.377-57.897-43.742-101.708-84.452-140.352-6.716-6.406-13.26-12.606-19.356-18.668-21.044-21.079-54.694-31.652-97.092-31.652zM186.608 925.558c-41.158 0-78.321-39.126-111.214-73.741-6.613-6.957-13.019-13.708-19.322-20.011-31.583-31.549-28.38-114.451 8.128-211.268 45.119-119.583 134.772-250.257 252.461-367.946 117.654-117.62 248.259-207.273 367.877-252.358 96.817-36.578 179.719-39.677 211.234-8.163 6.303 6.303 13.054 12.709 20.011 19.288 35.372 33.616 75.497 71.709 73.741 113.969-1.205 29.035-22.353 60.274-62.857 92.822-121.202 97.471-155.093 63.064-211.303 6.062l-11.021-11.125c-26.865-26.899-70.503-20.941-129.744 17.566-41.090 26.727-91.857 70.193-150.822 129.193-145.725 145.69-192.325 234.861-146.724 280.566l10.987 10.849c57.14 56.21 91.616 90.135-5.89 211.406-32.617 40.47-63.821 61.617-92.856 62.857-0.895 0.034-1.791 0.034-2.686 0.034z" />
<glyph unicode="&#xe90a;" glyph-name="placeholder" d="M515.338 735.59c-72.166 0-130.906-58.739-130.906-130.906s58.739-130.906 130.906-130.906 130.906 58.739 130.906 130.906-58.739 130.906-130.906 130.906zM515.338 511.181c-51.558 0-93.504 41.946-93.504 93.504s41.946 93.504 93.504 93.504 93.504-41.946 93.504-93.504-41.946-93.504-93.504-93.504zM765.611 854.958c-67.734 67.734-157.797 105.042-253.583 105.042-95.804 0-185.849-37.308-253.583-105.042-125.351-125.333-140.929-361.15-33.736-504.024l287.319-414.933 286.889 414.354c107.623 143.454 92.045 379.271-33.306 504.604zM768.584 372.215l-256.556-370.5-256.968 371.080c-97.225 129.634-83.293 342.599 29.846 455.72 60.665 60.665 141.322 94.084 227.121 94.084s166.456-33.418 227.14-94.084c113.14-113.121 127.072-326.086 29.416-456.3z" />
<glyph unicode="&#xe90b;" glyph-name="black-and-white-credit-cards" d="M972.429 479.933l-453.224 453.27c-17.857 17.857-41.252 26.797-64.648 26.797s-46.814-8.94-64.648-26.797l-248.203-248.157c-35.714-35.714-35.714-94.731 0-130.445l41.137-42.264h94.892l-88.572 89.721c-6.205 6.228-7.124 14.019-7.124 17.788s0.919 11.284 7.124 17.489l32.772 31.761 155.748-156.759h149.405l-230.461 231.611 140.718 141.269c6.205 6.205 13.444 7.377 17.213 7.377s11.008-0.781 17.213-6.963l453.247-453.201c6.228-6.228 7.17-13.398 7.17-17.19 0-3.769-1.609-10.985-7.837-17.213l-25.694-25.073v-94.892l73.174 72.508c35.691 35.783 36.334 93.651 0.598 129.365zM759.778 469.844h-641.031c-50.491 0-93.674-40.678-93.674-91.169v-242.458h825.001v242.458c0 50.491-39.804 91.169-90.295 91.169zM249.1 218.768c-17.903 0-34.105 7.124-46.056 18.615-11.951-11.491-28.176-18.615-46.033-18.615-36.725 0-66.532 29.761-66.532 66.555 0 36.748 29.784 66.532 66.532 66.532 17.88 0 34.105-7.101 46.033-18.592 11.951 11.491 28.153 18.592 46.056 18.592 36.748 0 66.532-29.784 66.532-66.532 0-36.794-29.784-66.555-66.532-66.555zM25.073 27.72c0-50.491 43.16-91.697 93.674-91.697h641.031c50.491 0 90.318 41.206 90.318 91.697v5.378h-825.024v-5.378z" />
<glyph unicode="&#xe90c;" glyph-name="code" d="M638.469 821.8l-34.702 9.513c-4.467 1.49-8.867 1.021-13.145-1.401-4.292-2.424-7.191-6.064-8.681-10.913l-208.72-722.405c-1.49-4.851-1.023-9.425 1.401-13.71 2.424-4.292 6.056-7.183 10.913-8.673l34.693-9.517c4.476-1.501 8.861-1.031 13.151 1.395 4.292 2.436 7.185 6.064 8.673 10.905l208.726 722.417c1.488 4.849 1.025 9.423-1.403 13.718-2.426 4.292-6.054 7.183-10.905 8.671zM325.675 680.779c0 4.849-1.868 9.143-5.598 12.871l-27.982 27.98c-3.73 3.73-8.022 5.6-12.871 5.6s-9.143-1.872-12.871-5.6l-260.756-260.756c-3.736-3.73-5.598-8.022-5.598-12.871s1.868-9.141 5.598-12.869l260.754-260.756c3.728-3.736 8.014-5.594 12.871-5.594s9.143 1.864 12.871 5.594l27.982 27.964c3.73 3.728 5.598 8.022 5.598 12.877 0 4.843-1.868 9.135-5.598 12.863l-219.909 219.921 219.911 219.906c3.736 3.728 5.598 8.022 5.598 12.871zM1018.404 460.88l-260.762 260.756c-3.728 3.728-8.022 5.6-12.863 5.6-4.857 0-9.135-1.872-12.877-5.6l-27.97-27.978c-3.728-3.73-5.588-8.016-5.588-12.871s1.858-9.143 5.588-12.871l219.915-219.911-219.915-219.923c-3.728-3.728-5.588-8.022-5.588-12.863 0-4.857 1.858-9.149 5.588-12.877l27.97-27.964c3.741-3.736 8.022-5.594 12.877-5.594 4.843 0 9.135 1.864 12.863 5.594l260.762 260.754c3.73 3.728 5.594 8.028 5.594 12.877 0 4.851-1.864 9.143-5.594 12.871z" />
<glyph unicode="&#xe90d;" glyph-name="left-arrow2" d="M703.305-2.878c6.35-6.35 14.288-9.526 23.020-9.526s16.67 3.175 23.020 9.526c12.701 12.701 12.701 33.34 0 46.040l-404.837 404.837 404.837 404.837c12.701 12.701 12.701 33.34 0 46.040s-33.34 12.701-46.040 0l-428.651-427.857c-12.701-12.701-12.701-33.34 0-46.040l428.651-427.857z" />
<glyph unicode="&#xe90e;" glyph-name="menu-grid" d="M426.667 910.223c0 23.467-19.2 42.667-42.667 42.667h-341.333c-23.467 0-42.667-19.2-42.667-42.667v-341.333c0-23.467 19.2-42.667 42.667-42.667h341.333c23.467 0 42.667 19.2 42.667 42.667v341.333zM85.333 867.556h256v-256h-256v256zM1024 910.223c0 23.467-19.2 42.667-42.667 42.667h-341.333c-23.467 0-42.667-19.2-42.667-42.667v-341.333c0-23.467 19.2-42.667 42.667-42.667h341.333c23.467 0 42.667 19.2 42.667 42.667v341.333zM682.667 867.556h256v-256h-256v256zM426.667 327.11c0 23.467-19.2 42.667-42.667 42.667h-341.333c-23.467 0-42.667-19.2-42.667-42.667v-341.333c0-23.467 19.2-42.667 42.667-42.667h341.333c23.467 0 42.667 19.2 42.667 42.667v341.333zM85.333 284.444h256v-256h-256v256zM1024 327.11c0 23.467-19.2 42.667-42.667 42.667h-341.333c-23.467 0-42.667-19.2-42.667-42.667v-341.333c0-23.467 19.2-42.667 42.667-42.667h341.333c23.467 0 42.667 19.2 42.667 42.667v341.333zM682.667 284.444h256v-256h-256v256z" />
<glyph unicode="&#xe90f;" glyph-name="play-button" d="M955.316 703.958c-141.36 244.843-454.453 328.737-699.276 187.351-244.843-141.34-328.74-454.421-187.355-699.254 141.34-244.843 454.424-328.75 699.25-187.378 244.846 141.389 328.783 454.453 187.381 699.28zM716.756 93.372c-195.845-113.111-446.335-45.992-559.413 149.892-113.105 195.845-45.962 446.331 149.889 559.387 195.858 113.105 446.335 45.992 559.42-149.886 113.088-195.874 45.966-446.309-149.895-559.394zM696.283 468.808l-268.054 156.335c-24.427 14.261-44.13 2.859-43.993-25.396l1.373-310.309c0.124-28.248 20.068-39.748 44.567-25.598l266.003 153.577c24.473 14.124 24.525 37.13 0.104 51.391z" />
<glyph unicode="&#xe910;" glyph-name="round-help-button" d="M511.99 960c-282.309 0-511.99-229.683-511.99-512 0-282.314 229.681-512 511.99-512 282.33 0 512.010 229.686 512.010 512 0 282.317-229.681 512-512.010 512zM511.99 3.149c-245.271 0-444.841 199.562-444.841 444.851 0 245.292 199.57 444.849 444.841 444.849 245.289 0 444.856-199.56 444.856-444.849 0.003-245.289-199.567-444.851-444.856-444.851zM511.99 726.062c-90.051 0-163.3-73.257-163.3-163.31 0-18.542 15.030-33.574 33.569-33.574 18.55 0 33.58 15.035 33.58 33.574 0 53.018 43.131 96.159 96.151 96.159 53.041 0 96.169-43.141 96.169-96.159 0-53.028-43.133-96.169-96.169-96.169-18.54 0-33.569-15.035-33.569-33.572v-116.951c0-18.542 15.030-33.574 33.569-33.574s33.58 15.032 33.58 33.574v86.881c73.997 15.524 129.741 81.27 129.741 159.813 0 90.051-73.26 163.308-163.32 163.308zM512.010 259.231c-23.26 0-42.15-18.87-42.15-42.143s18.89-42.15 42.15-42.15c23.281 0 42.13 18.877 42.13 42.15s-18.849 42.143-42.13 42.143z" />
<glyph unicode="&#xe911;" glyph-name="star3" d="M1023.102 564.492c-2.163 6.635-7.9 11.474-14.81 12.482l-331.576 48.188-148.284 300.453c-3.079 6.269-9.458 10.228-16.423 10.228s-13.362-3.959-16.423-10.228l-148.302-300.471-331.576-48.188c-6.91-1.008-12.629-5.829-14.81-12.482-2.145-6.617-0.367-13.912 4.637-18.769l239.948-233.881-56.656-330.256c-1.173-6.873 1.65-13.82 7.277-17.926 5.664-4.142 13.16-4.674 19.301-1.393l296.604 155.909 296.567-155.909c2.676-1.411 5.627-2.108 8.541-2.108 3.794 0 7.57 1.173 10.778 3.501 5.645 4.106 8.468 11.053 7.277 17.926l-56.637 330.238 239.948 233.9c4.986 4.894 6.782 12.171 4.619 18.787z" />
<glyph unicode="&#xe912;" glyph-name="study" d="M963.996 412.829v95.16c0 16.568-13.432 30-30 30-61.976 0-119.756-5.23-174.346-15.91-31.822 30.73-70.616 53.026-112.626 65.212 45.808 38.554 74.972 96.28 74.972 160.698 0 116.898-94.206 212-210 212s-210-95.102-210-212c0-64.418 29.164-122.144 74.974-160.696-42.010-12.188-80.804-34.484-112.626-65.212-54.59 10.678-112.37 15.91-174.346 15.91-16.568 0-30-13.432-30-30v-95.16c-34.918-12.384-60-45.73-60-84.84v-60c0-39.11 25.082-72.456 60-84.84v-95.16c0-16.568 13.432-30 30-30 156.858 0 285.663-37.166 405.359-116.962 10.030-6.684 23.242-6.7 33.282 0 119.696 79.796 248.5 116.962 405.359 116.962 16.568 0 30 13.432 30 30v95.16c34.918 12.384 60 45.73 60 84.84v60c-0.004 39.108-25.086 72.454-60.004 84.838zM361.997 747.988c0 83.814 67.29 152 150 152s150-68.186 150-152c0-82.71-67.29-150-150-150s-150 67.29-150 150zM89.998 237.989c-16.542 0-30 13.458-30 30v60c0 16.542 13.458 30 30 30s30-13.458 30-30v-60c0-16.542-13.458-30-30-30zM481.997 19.82c-108.906 62.282-225.772 93.76-361.999 97.738v65.592c34.918 12.384 60 45.73 60 84.84v60c0 39.11-25.082 72.456-60 84.84v64.736c140.962-4.046 254.268-37.24 361.999-105.832v-351.913zM511.997 423.711c-55.372 34.938-113.008 61.54-174.536 80.234 33.808 21.972 73.606 34.044 114.536 34.044h120c40.93 0 80.728-12.072 114.536-34.044-61.528-18.694-119.166-45.296-174.536-80.234zM903.996 117.558c-136.226-3.978-253.096-35.464-361.999-97.742v351.893c107.734 68.598 221.032 101.812 361.999 105.856v-64.736c-34.918-12.384-60-45.73-60-84.84v-60c0-39.11 25.082-72.456 60-84.84v-65.592zM963.996 267.989c0-16.542-13.458-30-30-30s-30 13.458-30 30v60c0 16.542 13.458 30 30 30s30-13.458 30-30v-60z" />
<glyph unicode="&#xe913;" glyph-name="megaphone" d="M899.022 684.704v164.76c0 18.144-9.336 34.454-24.974 43.628-15.698 9.21-34.58 9.4-50.502 0.494-152.048-85.032-317.45-134.69-491.61-147.604-1.334-0.098-158.744-0.786-158.744-0.786-39.534 0-72.21-29.846-76.732-68.182h-32.31c-35.37 0-64.15-28.776-64.15-64.148v-140.936c0-35.372 28.78-64.15 64.15-64.15h32.306c3.256-27.59 21.088-50.766 45.57-61.598l114.97-317.296c7.186-19.75 26.134-33.022 47.156-33.022h115.374c16.356 0 31.72 7.998 41.102 21.394 9.382 13.4 11.644 30.574 6.060 45.92l-98.778 272.474c160.964-16.722 314.078-65.202 455.634-144.366 7.81-4.368 16.332-6.546 24.84-6.546 8.834 0.002 17.66 2.35 25.658 7.042 15.638 9.176 24.978 25.484 24.978 43.632v164.76c70.402 9.12 124.98 69.418 124.98 142.264 0 72.848-54.578 133.148-124.978 142.266zM95.902 457.256h-31.752c-8.094 0-14.676 6.582-14.676 14.676v140.934c0 8.088 6.582 14.674 14.676 14.674h31.752v-170.284zM161.86 391.51c-9.7 4.348-16.484 14.078-16.484 25.376v251.026h0.002c0 15.334 12.478 27.81 27.812 27.81h134.666v-306.648c0 0-135.84 0.052-136.426 0.088-4.962 0.574-6.006 0.83-9.57 2.348zM420.182 46.294c0.080-0.202 0.132-0.346-0.082-0.648-0.21-0.302-0.366-0.302-0.576-0.302h-115.374c-0.294 0-0.564 0.186-0.654 0.43l-106.466 293.828h116.822l106.33-293.308zM849.548 235.412c0-0.358 0-0.644-0.534-0.958-0.636-0.368-1.016-0.158-1.32 0.012-152.068 85.040-316.938 136.090-490.364 151.92v312.080c173.44 15.854 338.31 66.908 490.358 151.94 0.312 0.17 0.698 0.38 1.326 0.012 0.534-0.314 0.534-0.596 0.534-0.954v-614.052zM899.022 450.254v184.37c43.006-8.628 75.504-46.678 75.504-92.184 0-45.508-32.5-83.56-75.504-92.186z" />
<glyph unicode="&#xe914;" glyph-name="database" d="M597.333 960c-190.31 0-351.061-44.169-405.931-110.507-111.718-27.341-176.316-73.387-188.911-120.064-1.434-2.509-2.492-5.257-2.492-8.363v-631.467c0-2.765 0.734-5.376 1.997-7.697 20.156-83.541 200.482-145.903 424.67-145.903 191.829 0 351.215 45.739 405.948 111.241 108.527 26.385 176.913 69.564 189.269 119.467 1.348 2.423 2.116 5.239 2.116 8.226v622.933c0 78.592-149.538 162.133-426.667 162.133zM815.872 288.461c-0.683-1.69-1.519-3.379-2.441-5.069-1.143-2.099-2.423-4.198-3.942-6.298-1.126-1.587-2.406-3.157-3.738-4.727-1.894-2.236-3.908-4.471-6.195-6.69-1.382-1.348-2.901-2.679-4.437-4.028-2.799-2.441-5.717-4.864-8.977-7.27-1.399-1.041-2.901-2.048-4.386-3.072-3.857-2.662-7.885-5.308-12.305-7.902-1.161-0.7-2.406-1.365-3.618-2.048-5.086-2.867-10.394-5.717-16.128-8.482-0.734-0.358-1.502-0.7-2.253-1.041-6.4-3.021-13.090-5.99-20.241-8.858-0.205-0.085-0.41-0.154-0.614-0.239-38.758-15.479-88.337-28.501-146.108-37.035-0.29-0.034-0.58-0.068-0.87-0.119-11.23-1.655-22.75-3.123-34.577-4.42-1.929-0.205-3.959-0.341-5.905-0.546-10.325-1.075-20.77-2.065-31.522-2.85-4.915-0.358-10.069-0.529-15.070-0.836-8.090-0.478-16.094-1.007-24.388-1.297-13.551-0.427-27.375-0.7-41.489-0.7s-27.938 0.273-41.506 0.751c-8.294 0.29-16.299 0.836-24.388 1.297-5.001 0.29-10.155 0.478-15.070 0.836-10.752 0.785-21.197 1.775-31.522 2.85-1.946 0.205-3.977 0.341-5.905 0.546-11.827 1.297-23.347 2.782-34.577 4.42-0.29 0.034-0.58 0.068-0.87 0.119-57.771 8.533-107.349 21.555-146.108 37.035-0.205 0.068-0.41 0.154-0.614 0.239-7.151 2.867-13.858 5.837-20.241 8.858-0.734 0.358-1.519 0.7-2.253 1.041-5.734 2.765-11.042 5.598-16.128 8.482-1.195 0.683-2.458 1.348-3.618 2.048-4.42 2.594-8.448 5.239-12.305 7.902-1.468 1.024-2.987 2.031-4.386 3.072-3.26 2.406-6.178 4.83-8.977 7.27-1.519 1.331-3.055 2.662-4.437 4.028-2.287 2.219-4.301 4.437-6.195 6.69-1.331 1.57-2.611 3.14-3.738 4.727-1.502 2.099-2.782 4.198-3.942 6.298-0.922 1.69-1.741 3.379-2.441 5.069-0.836 2.065-1.502 4.13-1.98 6.195-0.631 2.714-1.331 5.478-1.331 8.226 0 1.929 0.222 3.857 0.529 5.769 0.427 2.577 0.188 5.154-0.529 7.595v126.703c0.478-0.444 1.075-0.87 1.57-1.314 3.721-3.277 7.509-6.537 11.776-9.677 64.29-48.623 192.853-86.409 379.187-86.409 185.549 0 313.788 37.478 378.351 85.811 5.154 3.755 9.796 7.629 14.165 11.571l0.017 0.017v-126.703c-0.717-2.441-0.956-5.018-0.529-7.595 0.307-1.911 0.529-3.84 0.529-5.769 0-2.748-0.7-5.513-1.348-8.277-0.495-2.065-1.143-4.13-1.98-6.195zM44.39 639.198c5.12-4.028 10.65-8.004 16.64-11.878 1.246-0.802 2.645-1.587 3.942-2.389 5.018-3.123 10.325-6.178 15.906-9.182 2.065-1.109 4.13-2.202 6.263-3.294 6.229-3.174 12.766-6.263 19.644-9.25 1.126-0.495 2.15-1.007 3.294-1.485 8.004-3.396 16.503-6.639 25.344-9.779 2.441-0.87 5.001-1.69 7.509-2.543 7.031-2.372 14.302-4.642 21.828-6.844 2.714-0.785 5.376-1.604 8.158-2.355 9.984-2.765 20.292-5.393 31.113-7.817 1.485-0.341 3.089-0.614 4.591-0.939 9.54-2.082 19.439-4.011 29.611-5.82 3.447-0.614 6.946-1.195 10.462-1.775 9.677-1.587 19.644-3.038 29.867-4.369 2.628-0.341 5.137-0.734 7.799-1.058 12.698-1.536 25.839-2.85 39.339-3.977 3.328-0.273 6.793-0.478 10.172-0.717 10.803-0.785 21.845-1.434 33.143-1.946 4.113-0.188 8.209-0.375 12.407-0.529 14.729-0.495 29.713-0.853 45.244-0.853s30.515 0.358 45.227 0.853c4.181 0.154 8.277 0.341 12.407 0.529 11.298 0.512 22.34 1.161 33.143 1.946 3.379 0.256 6.827 0.444 10.172 0.717 13.5 1.109 26.641 2.441 39.339 3.977 2.662 0.324 5.171 0.717 7.799 1.058 10.223 1.331 20.173 2.782 29.867 4.369 3.516 0.58 7.014 1.161 10.462 1.775 10.172 1.809 20.070 3.738 29.611 5.82 1.502 0.324 3.106 0.614 4.591 0.939 10.82 2.423 21.129 5.069 31.113 7.817 2.782 0.768 5.444 1.57 8.158 2.355 7.526 2.202 14.797 4.471 21.828 6.844 2.509 0.853 5.069 1.673 7.509 2.543 8.841 3.14 17.357 6.383 25.344 9.779 1.143 0.478 2.167 0.99 3.294 1.485 6.878 3.004 13.414 6.076 19.644 9.25 2.133 1.092 4.215 2.185 6.263 3.294 5.581 2.987 10.889 6.042 15.906 9.182 1.297 0.802 2.697 1.587 3.942 2.389 5.99 3.874 11.52 7.834 16.64 11.878 1.28 1.024 2.423 2.048 3.669 3.072 2.219 1.843 4.557 3.669 6.605 5.53v-126.703c-0.717-2.441-0.956-5.018-0.529-7.595 0.307-1.911 0.529-3.84 0.529-5.769 0-2.748-0.7-5.513-1.348-8.277-0.478-2.065-1.143-4.113-1.98-6.195-0.683-1.69-1.519-3.379-2.441-5.069-1.143-2.099-2.423-4.198-3.942-6.298-1.126-1.587-2.406-3.157-3.738-4.727-1.894-2.236-3.908-4.471-6.195-6.69-1.382-1.348-2.901-2.679-4.437-4.028-2.799-2.441-5.717-4.864-8.977-7.27-1.399-1.041-2.901-2.048-4.386-3.072-3.857-2.662-7.885-5.308-12.305-7.902-1.161-0.7-2.406-1.365-3.618-2.048-5.086-2.867-10.394-5.717-16.128-8.482-0.734-0.358-1.502-0.7-2.253-1.041-6.4-3.021-13.090-5.99-20.241-8.858-0.205-0.085-0.41-0.154-0.614-0.239-38.758-15.479-88.337-28.501-146.108-37.035-0.29-0.034-0.58-0.068-0.87-0.119-11.23-1.655-22.75-3.123-34.577-4.42-1.929-0.205-3.959-0.341-5.905-0.546-10.325-1.075-20.77-2.065-31.522-2.85-4.915-0.358-10.069-0.529-15.070-0.836-8.090-0.478-16.094-1.007-24.388-1.297-13.551-0.427-27.375-0.7-41.489-0.7s-27.938 0.273-41.506 0.751c-8.294 0.29-16.299 0.836-24.388 1.297-5.001 0.29-10.155 0.478-15.070 0.836-10.752 0.785-21.197 1.775-31.522 2.85-1.946 0.205-3.977 0.341-5.905 0.546-11.827 1.297-23.347 2.782-34.577 4.42-0.29 0.034-0.58 0.068-0.87 0.119-57.771 8.533-107.349 21.555-146.108 37.035-0.205 0.068-0.41 0.154-0.614 0.239-7.151 2.867-13.858 5.837-20.241 8.858-0.734 0.358-1.519 0.7-2.253 1.041-5.734 2.765-11.042 5.598-16.128 8.482-1.195 0.683-2.458 1.348-3.618 2.048-4.42 2.594-8.448 5.239-12.305 7.902-1.468 1.024-2.987 2.031-4.386 3.072-3.26 2.406-6.178 4.83-8.977 7.27-1.519 1.331-3.055 2.662-4.437 4.028-2.287 2.219-4.301 4.437-6.195 6.69-1.331 1.57-2.611 3.14-3.738 4.727-1.502 2.099-2.782 4.198-3.942 6.298-0.922 1.69-1.741 3.379-2.441 5.069-0.836 2.065-1.502 4.13-1.98 6.195-0.631 2.714-1.331 5.478-1.331 8.226 0 1.929 0.222 3.857 0.529 5.769 0.427 2.577 0.188 5.154-0.529 7.595v126.703c2.048-1.86 4.386-3.686 6.605-5.53 1.229-1.024 2.372-2.048 3.652-3.072zM853.333 292.864v169.267c0.734 0.205 1.417 0.427 2.15 0.631 6.827 1.911 13.483 3.874 19.934 5.905 0.068 0.017 0.154 0.051 0.222 0.068 50.534 15.974 89.088 35.823 114.227 58.487v-138.957c0-1.98-0.256-3.959-0.597-5.956-0.273-1.638-0.734-3.277-1.229-4.915-0.154-0.478-0.256-0.956-0.427-1.451-0.614-1.792-1.382-3.584-2.27-5.376-0.102-0.222-0.222-0.444-0.324-0.666-14.131-27.563-59.136-54.647-124.075-74.735-2.509-0.768-5.035-1.553-7.612-2.304zM989.867 732.211v-139.145c0-1.98-0.256-3.959-0.597-5.956-0.273-1.638-0.734-3.277-1.229-4.915-0.154-0.478-0.256-0.956-0.427-1.451-0.614-1.792-1.382-3.584-2.27-5.376-0.102-0.222-0.222-0.444-0.324-0.666-14.131-27.563-59.136-54.647-124.075-74.735-2.509-0.768-5.035-1.553-7.612-2.304v169.267c1.434 0.393 2.748 0.836 4.164 1.229 3.925 1.109 7.748 2.27 11.554 3.413 3.226 0.973 6.451 1.963 9.574 2.97 3.891 1.263 7.646 2.56 11.383 3.874 2.833 0.99 5.7 1.963 8.448 2.97 3.942 1.451 7.714 2.97 11.486 4.471 2.338 0.939 4.762 1.843 7.031 2.799 4.369 1.843 8.533 3.738 12.663 5.666 1.485 0.683 3.055 1.348 4.489 2.031 5.53 2.662 10.837 5.393 15.889 8.175 0.529 0.29 0.973 0.597 1.502 0.887 4.454 2.492 8.755 5.035 12.817 7.629 1.434 0.922 2.714 1.86 4.096 2.782 3.004 1.997 5.973 4.011 8.738 6.076 1.519 1.126 2.884 2.287 4.318 3.43 2.406 1.911 4.813 3.823 7.014 5.769 0.444 0.393 0.956 0.734 1.365 1.109zM597.333 925.867c231.339 0 392.533-67.447 392.533-128 0-2.27-0.239-4.54-0.683-6.81-0.137-0.751-0.427-1.485-0.614-2.236-0.393-1.536-0.768-3.055-1.348-4.591-0.341-0.887-0.802-1.775-1.195-2.662-0.631-1.382-1.246-2.765-2.031-4.147-0.529-0.939-1.161-1.877-1.758-2.816-0.853-1.331-1.707-2.662-2.679-3.977-0.717-0.956-1.519-1.911-2.304-2.85-1.075-1.297-2.167-2.594-3.362-3.874-0.887-0.956-1.843-1.911-2.799-2.867-1.28-1.263-2.611-2.543-4.028-3.806-1.058-0.939-2.15-1.894-3.277-2.833-1.502-1.246-3.072-2.492-4.693-3.738-1.212-0.922-2.441-1.86-3.721-2.782-1.724-1.246-3.55-2.475-5.393-3.703-1.348-0.905-2.697-1.792-4.113-2.697-1.98-1.246-4.045-2.475-6.144-3.686-1.451-0.853-2.884-1.707-4.403-2.543-2.253-1.246-4.642-2.492-7.031-3.738-1.519-0.785-2.987-1.587-4.557-2.355-2.611-1.297-5.376-2.56-8.124-3.84-1.502-0.683-2.918-1.382-4.454-2.065-3.635-1.604-7.407-3.191-11.247-4.745-0.768-0.307-1.468-0.631-2.236-0.939-4.676-1.86-9.523-3.686-14.507-5.478-1.382-0.495-2.867-0.973-4.267-1.451-3.652-1.263-7.305-2.526-11.11-3.755-1.98-0.649-4.062-1.246-6.093-1.877-2.748-0.853-5.495-1.69-8.311-2.509v18.569c0 1.929-0.461 3.755-1.109 5.495-0.239 0.683-0.461 1.331-0.785 1.963-0.034 0.068-0.051 0.171-0.102 0.239-4.847 20.087-19.149 38.895-40.892 55.962-0.119 0.102-0.222 0.205-0.358 0.29-3.106 2.441-6.571 4.779-9.984 7.134-60.535 42.854-171.947 76.442-329.984 81.681-14.319 0.529-28.809 0.836-43.503 0.836-14.575 0-29.065-0.29-43.435-0.819-42.633-1.417-81.698-4.966-117.487-10.138 66.116 34.645 182.647 62.157 331.588 62.157zM230.281 822.426c4.301 0.853 8.738 1.604 13.124 2.406 5.666 1.041 11.366 2.048 17.22 2.987 5.103 0.819 10.257 1.587 15.445 2.338 5.751 0.819 11.622 1.587 17.545 2.321 5.018 0.631 10.018 1.28 15.104 1.826 10.223 1.109 20.634 2.082 31.283 2.901 4.045 0.324 8.158 0.529 12.237 0.802 8.26 0.546 16.589 1.024 25.088 1.382 4.011 0.171 8.021 0.341 12.066 0.478 12.254 0.375 24.61 0.666 37.274 0.666 14.114 0 27.938-0.273 41.523-0.751 8.192-0.29 16.094-0.819 24.081-1.28 5.12-0.29 10.359-0.495 15.394-0.853 10.598-0.768 20.89-1.758 31.078-2.799 2.099-0.205 4.301-0.358 6.383-0.597 11.554-1.263 22.801-2.714 33.792-4.318 0.563-0.085 1.161-0.154 1.707-0.222 57.498-8.499 106.854-21.436 145.51-36.813 0.427-0.171 0.887-0.341 1.314-0.512 6.929-2.782 13.414-5.666 19.61-8.585 0.956-0.444 1.946-0.887 2.884-1.331 5.547-2.679 10.667-5.427 15.599-8.192 1.365-0.768 2.799-1.536 4.113-2.321 4.25-2.509 8.141-5.052 11.878-7.629 1.621-1.109 3.26-2.236 4.779-3.362 3.14-2.321 5.956-4.659 8.653-7.014 1.621-1.417 3.243-2.833 4.71-4.267 2.202-2.15 4.164-4.301 5.99-6.468 1.382-1.638 2.731-3.277 3.891-4.932 1.468-2.031 2.714-4.079 3.84-6.127 0.956-1.741 1.792-3.465 2.492-5.188 0.819-2.031 1.468-4.079 1.946-6.11 0.666-2.799 1.365-5.564 1.365-8.329 0-60.553-161.195-128-392.533-128s-392.533 67.447-392.533 128c0 41.301 75.076 85.76 196.147 109.892zM426.667-29.867c-222.481 0-382.31 63.198-391.987 122.231-0.137 0.768-0.307 1.519-0.546 2.236v143.599c0.478-0.444 1.075-0.87 1.57-1.314 3.721-3.277 7.509-6.537 11.776-9.677 64.29-48.623 192.853-86.409 379.187-86.409 185.549 0 313.788 37.478 378.351 85.811 5.154 3.755 9.796 7.629 14.165 11.571l0.017 0.017v-143.531c-0.239-0.751-0.41-1.519-0.546-2.304-0.563-3.482-1.758-6.98-3.345-10.462-0.614-1.348-1.57-2.697-2.338-4.045-30.874-54.426-181.999-107.725-386.304-107.725zM989.321 177.698c-5.41-33.126-56.559-66.406-136.055-89.685 0.051 0.512 0.068 1.058 0.068 1.587v167.731c0.734 0.205 1.417 0.427 2.15 0.631 6.827 1.911 13.483 3.874 19.934 5.905 0.068 0.017 0.154 0.051 0.222 0.068 50.534 15.974 89.088 35.823 114.227 58.487v-142.438c-0.239-0.734-0.41-1.502-0.546-2.287z" />
<glyph unicode="&#xe915;" glyph-name="flasks" d="M822.481 546.459v250.424c24.474 2.719 43.572 23.52 43.572 48.709 0 27.030-21.988 49.018-49.018 49.018h-217.858c-27.030 0-49.018-21.988-49.018-49.018 0-25.187 19.097-45.99 43.572-48.709v-250.428c-49.399-19.198-93.357-50.685-127.678-91.572-5.804-6.913-4.902-17.217 2.009-23.019 3.063-2.571 6.791-3.826 10.496-3.826 4.662 0 9.292 1.985 12.523 5.834 33.051 39.374 76.046 69.022 124.336 85.74 6.582 2.279 10.993 8.477 10.993 15.44v261.522h92.59c9.024 0 16.339 7.316 16.339 16.339s-7.316 16.339-16.339 16.339h-119.822c-9.011 0-16.339 7.329-16.339 16.339s7.329 16.339 16.339 16.339h217.858c9.011 0 16.339-7.329 16.339-16.339s-7.329-16.339-16.339-16.339h-32.679c-9.024 0-16.339-7.316-16.339-16.339s7.316-16.339 16.339-16.339h5.446v-261.519c0-6.963 4.414-13.163 10.993-15.44 113.96-39.454 190.526-147.028 190.526-267.685 0-156.165-127.051-283.216-283.216-283.216-36.816 0-72.654 6.976-106.515 20.731-8.357 3.399-17.891-0.627-21.287-8.987s0.63-17.891 8.989-21.287c37.788-15.35 77.76-23.134 118.813-23.134 174.184 0 315.895 141.71 315.895 315.895 0 130.652-80.503 247.555-201.519 294.527zM846.212 194.467c0-9.024-7.315-16.339-16.339-16.339s-16.339 7.315-16.339 16.339c0 9.024 7.315 16.339 16.339 16.339s16.339-7.315 16.339-16.339zM780.855 129.11c0-9.024-7.315-16.339-16.339-16.339s-16.339 7.315-16.339 16.339c0 9.024 7.315 16.339 16.339 16.339s16.339-7.315 16.339-16.339zM615.82 54.537c-8.168 3.823-17.897 0.305-21.727-7.867-3.828-8.172-0.305-17.899 7.867-21.727 33.367-15.629 69.079-23.555 106.145-23.555 138.146 0 250.537 112.391 250.537 250.537 0 44.036-11.597 87.357-33.537 125.282-3.329 5.754-9.806 8.923-16.394 8l-5.948-0.828c-0.745-0.102-1.486-0.259-2.209-0.464-24.701-7.011-38.023-17.71-48.726-26.306-11.858-9.525-19.694-15.817-42.299-15.817-19.304 0-28.014 7.483-40.071 17.84-13.344 11.464-29.951 25.731-61.364 25.731-31.411 0-48.016-14.268-61.36-25.733-12.054-10.357-20.762-17.838-40.062-17.838-22.603 0-30.435 6.292-42.293 15.817-10.703 8.597-24.023 19.296-48.72 26.306-0.725 0.207-1.464 0.362-2.211 0.464l-5.948 0.828c-6.575 0.922-13.037-2.231-16.372-7.963-0.142-0.242-0.279-0.488-0.429-0.767-4.497-7.823-1.8-17.812 6.024-22.309 3.399-1.952 7.202-2.549 10.791-1.956l0.272-0.039c17.625-5.181 26.62-12.405 36.13-20.045 14.087-11.316 28.655-23.017 62.756-23.017 31.411 0 48.016 14.268 61.36 25.733 12.054 10.357 20.762 17.838 40.062 17.838 19.304 0 28.014-7.483 40.071-17.84 13.344-11.464 29.951-25.731 61.364-25.731 34.104 0 48.672 11.701 62.763 23.015 8.394 6.743 16.383 13.159 30.261 18.137 15.348-30.328 23.413-64.081 23.413-98.339 0-120.127-97.731-217.858-217.858-217.858-32.241 0.004-63.29 6.891-92.287 20.472zM394.389 537.799v324.441c24.474 2.719 43.572 23.52 43.572 48.709 0 27.030-21.988 49.018-49.018 49.018h-217.858c-27.030 0-49.018-21.988-49.018-49.018 0-25.187 19.097-45.99 43.572-48.709v-261.831c0-9.024 7.316-16.339 16.339-16.339s16.339 7.316 16.339 16.339v261.522h92.59c9.024 0 16.339 7.316 16.339 16.339s-7.316 16.339-16.339 16.339h-119.822c-9.011 0-16.339 7.329-16.339 16.339s7.329 16.339 16.339 16.339h217.858c9.011 0 16.339-7.329 16.339-16.339s-7.329-16.339-16.339-16.339h-32.679c-9.024 0-16.339-7.316-16.339-16.339s7.316-16.339 16.339-16.339h5.446v-326.879c0-1.817 0.303-3.623 0.898-5.34l158.795-459.145c9.59-27.729 7.427-53.452-6.089-72.429-13.518-18.975-37.119-29.428-66.458-29.428h-337.681c-29.339 0-52.942 10.451-66.46 29.428-13.516 18.978-15.679 44.7-6.089 72.427l158.795 459.143c2.95 8.529-1.573 17.834-10.1 20.784-8.527 2.948-17.834-1.573-20.784-10.1l-158.797-459.143c-13.141-37.992-9.462-74.242 10.357-102.067s52.874-43.149 93.076-43.149h337.681c40.201 0 73.257 15.324 93.076 43.149s23.498 64.074 10.357 102.067l-157.897 456.551zM140.85 200.127c-4.161 3.226-9.627 4.255-14.671 2.752-5.048-1.501-9.065-5.344-10.786-10.322l-45.885-132.674c-6.039-17.464-5.392-32.659 1.823-42.787s21.363-15.708 39.842-15.708h337.681c18.477 0 32.626 5.579 39.84 15.708 7.218 10.128 7.865 25.326 1.823 42.787l-45.888 132.678c-1.721 4.978-5.736 8.819-10.784 10.32-5.048 1.503-10.512 0.477-14.671-2.752-8.913-6.913-17.35-12.202-37.74-12.202-19.302 0-28.014 7.483-40.071 17.84-13.344 11.464-29.951 25.731-61.364 25.731-31.411 0-48.016-14.268-61.36-25.733-12.054-10.357-20.762-17.838-40.064-17.838-20.383 0.004-28.818 5.29-37.727 12.2zM239.938 180.984c12.054 10.357 20.762 17.838 40.062 17.838 19.304 0 28.014-7.483 40.071-17.84 13.344-11.464 29.951-25.731 61.364-25.731 17.080 0 29.376 3.059 38.975 7.361l39.223-113.411c2.318-6.704 2.447-11.093 2.218-12.987-1.715-0.834-5.904-2.148-12.997-2.148h-337.681c-7.093 0-11.283 1.314-12.997 2.148-0.229 1.893-0.1 6.283 2.218 12.987l39.221 113.406c9.594-4.303 21.888-7.359 38.964-7.359 31.413 0.004 48.018 14.272 61.36 25.736z" />
<glyph unicode="&#xe916;" glyph-name="frame-square-symbol-with-four-angles" d="M977.455-17.455h-93.090v-46.545h139.635v139.635h-46.545zM1024 960h-139.635v-46.545h93.090v-93.092h46.545zM0-64h139.637v46.545h-93.092v93.090h-46.545zM93.090 29.092h837.818v837.818h-837.818v-837.818zM139.637 820.363h744.727v-744.727h-744.727v744.727zM0 820.363h46.545v93.092h93.092v46.545h-139.637z" />
<glyph unicode="&#xe917;" glyph-name="user2" d="M819.439 228.028l-163.038 81.51c-15.377 7.697-24.934 23.159-24.934 40.363v57.702c3.908 4.779 8.021 10.223 12.271 16.23 21.146 29.867 38.093 63.113 50.415 98.97 24.081 11.042 39.714 34.85 39.714 61.73v68.267c0 16.435-6.144 32.358-17.067 44.8v90.778c0.956 9.387 4.71 65.263-35.703 111.36-35.055 39.987-91.938 60.262-169.097 60.262s-134.042-20.275-169.097-60.245c-40.414-46.097-36.659-101.99-35.703-111.377v-90.778c-10.923-12.442-17.067-28.365-17.067-44.8v-68.267c0-20.77 9.438-40.141 25.549-53.060 15.633-61.901 48.35-108.544 59.785-123.511v-56.474c0-16.521-9.011-31.676-23.501-39.595l-152.252-83.046c-49.51-27.017-80.247-78.797-80.247-135.185v-55.262c0-80.998 256.768-102.4 392.533-102.4s392.533 21.402 392.533 102.4v51.934c0 58.675-32.614 111.445-85.094 137.694zM870.4 38.4c0-23.159-126.498-68.267-358.4-68.267s-358.4 45.107-358.4 68.267v55.262c0 43.878 23.927 84.207 62.447 105.199l152.252 83.046c25.481 13.909 41.301 40.585 41.301 69.581v68.591l-3.977 4.745c-0.41 0.495-42.24 51.098-58.197 120.576l-1.553 6.758-5.82 3.755c-9.882 6.383-15.787 17.084-15.787 28.621v68.267c0 9.574 4.062 18.5 11.435 25.173l5.632 5.069v106.291l-0.154 2.236c-0.051 0.461-5.854 47.77 27.392 85.692 28.279 32.256 76.544 48.606 143.428 48.606 66.645 0 114.807-16.23 143.121-48.265 33.229-37.564 27.733-85.623 27.699-86.033l-0.154-108.527 5.632-5.086c7.373-6.656 11.435-15.582 11.435-25.156v-68.267c0-14.899-9.762-27.938-24.269-32.41l-8.499-2.611-2.731-8.448c-11.418-35.516-27.682-68.318-48.367-97.502-5.069-7.185-10.001-13.551-14.285-18.415l-4.25-4.847v-70.4c0-30.208 16.777-57.361 43.793-70.878l163.038-81.51c40.858-20.429 66.236-61.491 66.236-107.179v-51.934z" />
<glyph unicode="&#xe918;" glyph-name="right-arrow" d="M320.695-2.878c-6.35-6.35-14.288-9.526-23.020-9.526s-16.67 3.175-23.020 9.526c-12.701 12.701-12.701 33.34 0 46.040l404.837 404.837-404.837 404.837c-12.701 12.701-12.701 33.34 0 46.040s33.34 12.701 46.040 0l427.857-427.857c12.701-12.701 12.701-33.34 0-46.040l-427.857-427.857z" />
<glyph unicode="&#xe919;" glyph-name="checked" d="M11.815 408.615c-7.877 7.877-11.815 19.692-11.815 27.569s3.938 19.692 11.815 27.569l55.138 55.138c15.754 15.754 39.385 15.754 55.138 0l3.938-3.938 216.615-232.369c7.877-7.877 19.692-7.877 27.569 0l527.754 547.446h3.938c15.754 15.754 39.385 15.754 55.138 0l55.138-55.138c15.754-15.754 15.754-39.385 0-55.138v0l-630.154-653.785c-7.877-7.877-15.754-11.815-27.569-11.815s-19.692 3.938-27.569 11.815l-307.2 330.831-7.877 11.815z" />
<glyph unicode="&#xe91a;" glyph-name="padlock1" d="M910.524 474.181c-13.58 13.577-30.058 20.36-49.46 20.36h-23.259v139.644c0 89.211-31.991 165.81-95.994 229.81-63.998 64.003-140.589 96.004-229.813 96.004-89.221 0-165.828-32.001-229.82-96.002-64.003-64.003-95.994-140.599-95.994-229.813v-139.644h-23.269c-19.387 0-35.876-6.783-49.453-20.36-13.577-13.567-20.363-30.055-20.363-49.46v-418.905c0-19.387 6.788-35.881 20.363-49.46 13.577-13.564 30.066-20.355 49.453-20.355h698.168c19.403 0 35.878 6.783 49.46 20.355 13.564 13.58 20.363 30.073 20.363 49.46v418.912c0.010 19.39-6.799 35.876-20.381 49.453zM698.175 494.541h-372.356v139.644c0 51.391 18.185 95.273 54.547 131.631 36.367 36.362 80.242 54.54 131.638 54.54 51.401 0 95.266-18.175 131.636-54.54 36.352-36.355 54.535-80.239 54.535-131.631v-139.644z" />
<glyph unicode="&#xe91b;" glyph-name="user-silhouette" d="M512.003 417.745c126.795 0 229.594 120.316 229.594 268.731 0 205.812-102.794 268.729-229.594 268.729-126.805 0-229.594-62.917-229.594-268.729 0.003-148.415 102.792-268.731 229.594-268.731zM1018.995 22.209l-115.833 260.935c-5.298 11.94-14.606 21.843-26.19 27.875l-179.766 93.58c-3.964 2.060-8.764 1.659-12.328-1.039-50.844-38.456-110.625-58.783-172.874-58.783-62.259 0-122.035 20.327-172.879 58.783-3.574 2.698-8.374 3.098-12.338 1.039l-179.754-93.58c-11.59-6.031-20.887-15.929-26.19-27.875l-115.833-260.935c-7.986-17.989-6.349-38.571 4.38-55.071 10.724-16.498 28.873-26.343 48.552-26.343h908.119c19.678 0 37.833 9.85 48.557 26.346 10.724 16.498 12.366 37.087 4.38 55.069z" />
<glyph unicode="&#xe91c;" glyph-name="multiple-users-silhouette" d="M617.94 730.971c47.347-29.686 80.548-79.921 86.592-138.233 19.309-9.022 40.74-14.211 63.462-14.211 82.95 0 150.182 67.232 150.182 150.169 0 82.95-67.232 150.182-150.182 150.182-82.158-0.026-148.801-66.056-150.054-147.907zM519.553 423.477c82.95 0 150.182 67.244 150.182 150.182s-67.244 150.169-150.182 150.169c-82.937 0-150.207-67.244-150.207-150.182s67.27-150.169 150.207-150.169zM583.257 413.24h-127.435c-106.029 0-192.289-86.273-192.289-192.302v-155.843l0.396-2.441 10.735-3.361c101.186-31.616 189.094-42.159 261.45-42.159 141.326 0 223.24 40.293 228.288 42.862l10.032 5.073h1.073v155.868c0.038 106.029-86.221 192.302-192.251 192.302zM831.724 568.278h-126.451c-1.367-50.593-22.964-96.151-57.123-128.917 94.247-28.025 163.204-115.422 163.204-218.653v-48.024c124.853 4.575 196.8 39.961 201.541 42.338l10.032 5.086h1.073v155.894c0 106.017-86.26 192.276-192.276 192.276zM256.032 578.502c29.379 0 56.714 8.575 79.87 23.182 7.361 48.012 33.098 89.966 69.864 118.54 0.153 2.811 0.422 5.597 0.422 8.434 0 82.95-67.244 150.182-150.156 150.182-82.963 0-150.182-67.232-150.182-150.182 0-82.912 67.219-150.156 150.182-150.156zM390.904 439.361c-33.993 32.6-55.513 77.915-57.085 128.201-4.69 0.345-9.329 0.716-14.108 0.716h-127.422c-106.029 0-192.289-86.26-192.289-192.276v-155.868l0.396-2.402 10.735-3.386c81.174-25.341 153.619-37.021 216.544-40.702v47.066c0.026 103.231 68.957 190.602 163.229 218.653z" />
<glyph unicode="&#xe91d;" glyph-name="envelope" d="M98.284 602.281c12.953-9.141 52-36.289 117.142-81.429 65.144-45.141 115.048-79.898 149.715-104.274 3.809-2.672 11.901-8.48 24.28-17.433 12.381-8.959 22.669-16.198 30.855-21.72 8.192-5.52 18.095-11.713 29.72-18.568 11.62-6.849 22.574-12.001 32.86-15.411 10.288-3.439 19.81-5.142 28.571-5.142h1.151c8.76 0 18.287 1.705 28.575 5.142 10.282 3.41 21.246 8.568 32.856 15.411 11.616 6.863 21.52 13.050 29.712 18.568 8.192 5.522 18.471 12.761 30.857 21.72 12.377 8.961 20.479 14.761 24.288 17.433 35.042 24.376 124.193 86.283 267.425 185.716 27.808 19.42 51.041 42.853 69.705 70.283 18.678 27.418 28.006 56.181 28.006 86.273 0 25.146-9.053 46.672-27.15 64.575-18.095 17.907-39.527 26.856-64.281 26.856h-841.144c-29.331 0-51.904-9.903-67.713-29.71-15.808-19.81-23.711-44.573-23.711-74.284 0-24 10.48-50.007 31.429-78.005 20.947-28 43.24-50.003 66.855-66zM966.85 541.144c-124.939-84.564-219.809-150.284-284.562-197.146-21.714-15.994-39.329-28.479-52.857-37.425-13.528-8.953-31.519-18.095-53.999-27.424-22.472-9.343-43.416-14-62.848-14h-1.157c-19.428 0-40.383 4.657-62.856 14-22.472 9.329-40.476 18.471-53.999 27.424-13.52 8.947-31.141 21.432-52.853 37.425-51.432 37.712-146.097 103.436-283.999 197.146-21.72 14.467-40.958 31.049-57.72 49.712v-453.701c0-25.158 8.949-46.672 26.856-64.577 17.903-17.911 39.431-26.864 64.575-26.864h841.146c25.138 0 46.664 8.953 64.569 26.864 17.911 17.911 26.856 39.417 26.856 64.577v453.701c-16.384-18.277-35.426-34.859-57.152-49.712z" />
<glyph unicode="&#xe91e;" glyph-name="man-user" d="M512 459.197c113.851 0 206.155 112.108 206.155 250.4 0 138.296-30.305 250.403-206.155 250.403s-206.16-112.108-206.16-250.403c0-138.293 92.303-250.4 206.16-250.4zM122.614 76.864c-0.035 8.432-0.070 2.376 0 0v0zM901.369 70.279c0.111 2.308 0.038 16.015 0 0v0zM900.93 86.976c-3.818 240.909-35.281 309.555-276.047 353.008 0 0-33.891-43.186-112.886-43.186s-112.892 43.186-112.892 43.186c-238.139-42.979-271.515-110.607-275.904-345.182-0.36-19.155-0.527-20.161-0.591-17.938 0.015-4.166 0.032-11.873 0.032-25.31 0 0 57.321-115.554 389.354-115.554 332.028 0 389.354 115.554 389.354 115.554 0 8.634 0.006 14.637 0.015 18.722-0.064-1.375-0.193 1.29-0.436 16.7z" />
<glyph unicode="&#xe91f;" glyph-name="padlock(1)" d="M910.524 474.181c-13.58 13.577-30.058 20.36-49.46 20.36h-23.259v139.644c0 89.211-31.991 165.81-95.994 229.81-63.998 64.003-140.589 96.004-229.813 96.004-89.221 0-165.828-32.001-229.82-96.002-64.003-64.003-95.994-140.599-95.994-229.813v-139.644h-23.269c-19.387 0-35.876-6.783-49.453-20.36-13.577-13.567-20.363-30.055-20.363-49.46v-418.905c0-19.387 6.788-35.881 20.363-49.46 13.577-13.564 30.066-20.355 49.453-20.355h698.168c19.403 0 35.878 6.783 49.46 20.355 13.564 13.58 20.363 30.073 20.363 49.46v418.912c0.010 19.39-6.799 35.876-20.381 49.453zM698.175 494.541h-372.356v139.644c0 51.391 18.185 95.273 54.547 131.631 36.367 36.362 80.242 54.54 131.638 54.54 51.401 0 95.266-18.175 131.636-54.54 36.352-36.355 54.535-80.239 54.535-131.631v-139.644z" />
<glyph unicode="&#xe920;" glyph-name="phone-book" d="M511.981 959.997c-282.752 0-511.981-229.236-511.981-511.998 0-282.755 229.23-511.998 511.981-511.998 282.772 0 512.019 229.247 512.019 511.998 0 282.762-229.247 511.998-512.019 511.998zM720.044 218.844v-35.411c0-19.555-15.855-35.411-35.411-35.411h-354.119c-39.111 0-70.824 31.71-70.824 70.824v445.581c0 39.111 31.71 70.824 70.824 70.824h354.115c19.555 0 35.411-15.855 35.411-35.411v-35.414h0.003v-445.584zM790.865 664.428v-480.994c0-19.555-15.855-35.411-35.411-35.411h-9.578c6.055 10.428 9.578 22.504 9.578 35.411v516.402c0 12.906-3.523 24.983-9.578 35.411h9.578c19.555 0 35.411-15.855 35.411-35.411v-35.407zM599.361 395.026c0 0-13.343 16.016-28.116 4.966-11.012-8.233-30.799-26.543-35.554-30.987 0 0-33.076 17.634-52.648 33.738-28.993 23.843-48.381 53.276-58.543 70.019l-7.588 14.306c2.645 2.85 22.904 24.539 31.666 36.315 11.032 14.766-4.956 28.109-4.956 28.109s-44.999 44.999-55.242 53.925c-10.25 8.95-22.054 3.983-22.054 3.983-21.556-13.933-43.893-26.037-45.221-84.263-0.044-54.508 41.333-110.724 86.069-154.244 44.821-49.16 106.368-98.418 165.85-98.364 58.215 1.311 70.309 23.655 84.236 45.21 0 0 4.984 11.793-3.956 22.044-8.943 10.267-53.942 55.242-53.942 55.242z" />
<glyph unicode="&#xe921;" glyph-name="phone-call2" d="M249.244 313.012l99.405-99.405 397.744 397.744-99.405 99.405 249.246 249.244c0 0 119.108-109.57 127.118-196.477 10.719-116.326-112.415-327.82-305.735-521.142-193.32-193.318-404.813-316.452-521.137-305.735-86.907 8.014-196.48 127.12-196.48 127.12l249.244 249.246z" />
<glyph unicode="&#xe922;" glyph-name="placeholder2" d="M765.611 854.958c-67.734 67.734-157.797 105.042-253.583 105.042-95.804 0-185.849-37.308-253.583-105.042-125.351-125.333-140.929-361.15-33.736-504.024l287.319-414.933 286.889 414.354c107.623 143.454 92.045 379.271-33.306 504.604zM515.338 473.779c-72.166 0-130.906 58.739-130.906 130.906s58.739 130.906 130.906 130.906 130.906-58.739 130.906-130.906-58.739-130.906-130.906-130.906z" />
<glyph unicode="&#xe923;" glyph-name="support" d="M948.116 863.491h-702.634c-42.158 0-75.884-34.663-75.884-75.884v-436.57c0-42.158 34.663-75.884 75.884-75.884h484.349l109.611-110.548c4.684-4.684 10.305-7.495 16.863-7.495 13.116 0 24.358 10.305 24.358 24.358v93.685h67.453c42.158 0 75.884 34.663 75.884 75.884v436.57c0 42.158-34.663 75.884-75.884 75.884zM353.219 487.816c-38.411 0-70.263 31.853-70.263 70.263s31.853 70.263 70.263 70.263c38.411 0 70.263-31.853 70.263-70.263s-30.916-70.263-70.263-70.263zM599.609 487.816c-38.411 0-70.263 31.853-70.263 70.263s31.853 70.263 70.263 70.263c38.411 0 70.263-31.853 70.263-70.263s-31.853-70.263-70.263-70.263zM845.063 487.816c-38.411 0-70.263 31.853-70.263 70.263s31.853 70.263 70.263 70.263c38.411 0 70.263-31.853 70.263-70.263s-31.853-70.263-70.263-70.263zM126.502 349.163v148.958h-76.821c-27.169 0-49.653-22.484-49.653-49.653v-286.675c-0.937-29.042 21.547-51.526 49.653-51.526h44.032v-61.832c0-8.432 7.495-15.926 15.926-15.926 4.684 0 8.432 1.874 11.242 4.684l72.137 72.137h318.527c27.169 0 49.653 22.484 49.653 49.653v71.2h-315.717c-65.579 0-118.979 53.4-118.979 118.979z" />
<glyph unicode="&#xe924;" glyph-name="play-button0" d="M512 960c-282.317 0-512-229.683-512-512s229.683-512 512-512 512 229.683 512 512-229.683 512-512 512zM777.609 433.903l-375.467-256c-2.884-1.963-6.246-2.97-9.609-2.97-2.731 0-5.478 0.649-7.97 1.98-5.598 2.953-9.097 8.755-9.097 15.087v512c0 6.332 3.499 12.134 9.097 15.087 5.598 2.97 12.356 2.56 17.596-0.99l375.467-256c4.642-3.174 7.441-8.448 7.441-14.097s-2.799-10.923-7.458-14.097z" />
<glyph unicode="&#xe925;" glyph-name="tag" d="M1013.936 887.442c-0.026 0.83-0.076 1.672-0.15 2.5-3.090 33.848-30.030 59.38-61.704 59.38-0.012 0-0.012 0-0.026 0l-405.83 10.050c-10.316 0.238-20.292-3.732-27.578-11.032l-500.066-500.050c-11.986-11.986-18.582-27.692-18.582-44.24 0-16.56 6.596-32.266 18.596-44.252l404.574-404.586c12.402-12.402 28.332-18.596 44.252-18.596 15.894 0 31.788 6.182 44.152 18.532l501.32 498.808c7.338 7.3 11.358 17.302 11.094 27.654l-10.052 405.832zM476.442 8.524l-0.038 0.050c0.012-0.012 0.026-0.012 0.038-0.038v-0.012zM467.422 17.57l-386.47 386.468 479.572 479.584 378.34-9.374 9.36-378.29-480.802-478.388zM691.042 772.176c-79.672 0-144.49-64.82-144.49-144.49s64.82-144.49 144.49-144.49c79.67 0 144.49 64.82 144.49 144.49 0.002 79.67-64.818 144.49-144.49 144.49zM691.042 558.58c-38.096 0-69.104 30.996-69.104 69.104s31.010 69.104 69.104 69.104 69.104-30.996 69.104-69.104c0.002-38.106-31.008-69.104-69.104-69.104z" />
<glyph unicode="&#xe926;" glyph-name="left-arrow3" d="M979.671 492.329h-828.336l197.653 197.666c17.316 17.305 17.316 45.378 0 62.681-17.316 17.316-45.388 17.316-62.678 0l-273.323-273.328c-17.316-17.305-17.316-45.381 0-62.681l273.323-273.341c8.655-8.66 19.999-12.984 31.339-12.984s22.684 4.324 31.339 12.984c17.316 17.305 17.316 45.378 0 62.678l-197.653 197.676h828.336c24.478 0 44.329 19.847 44.329 44.326s-19.847 44.323-44.329 44.323z" />
<glyph unicode="&#xe927;" glyph-name="question" d="M261.397 527.094c-71.168 0-129.013-57.845-129.013-129.013s57.845-129.013 129.013-129.013 129.013 57.845 129.013 129.013-57.845 129.013-129.013 129.013zM261.397 325.901c-39.801 0-72.010 32.21-72.010 72.010s32.379 72.010 72.010 72.010c39.631 0 72.010-32.21 72.010-72.010s-32.21-72.010-72.010-72.010zM522.624-31.284c-2.191 141.997-118.555 257.012-261.227 257.012-144.191 0-261.227-117.039-261.227-261.227 0-15.683 12.65-28.5 28.5-28.5h465.793c30.861 0 28.5 31.197 28.161 32.716zM59.024-7.167c13.829 99.331 99.331 176.064 202.372 176.064s188.544-76.565 202.372-176.064h-404.745zM726.851 960c-163.92 0-297.316-133.396-297.316-297.319 0-66.107 22.093-130.362 62.904-182.64l-34.234-177.243c-2.191-11.468 2.867-23.105 12.65-29.512 8.937-5.564 24.79-4.385 32.043 1.182l139.636 103.211c27.657-8.264 55.821-12.31 83.984-12.31 163.92 0 297.319 133.396 297.319 297.319s-133.062 297.313-296.985 297.313zM726.851 422.366c-26.815 0-53.63 4.552-79.599 13.829-8.937 3.203-18.72 1.685-26.476-4.049l-92.922-68.468 22.936 118.724c1.685 8.431-0.676 17.371-6.24 23.948-37.44 43.51-58.012 99.162-58.012 156.501 0 132.723 107.763 240.485 240.485 240.485s240.485-107.763 240.485-240.485c-0.003-132.723-107.935-240.485-240.658-240.485zM728.539 856.453c-0.676 0-1.012 0-1.685 0-30.018 0-58.518-11.637-79.769-32.885-21.754-21.587-33.897-50.424-33.897-81.117 0-15.683 12.65-28.5 28.5-28.5 15.853 0 28.5 12.647 28.5 28.5 0 15.347 6.070 29.849 16.865 40.474 10.792 10.625 25.466 16.696 40.644 16.359 30.018-0.337 55.651-25.972 55.99-55.99 0.17-20.238-9.613-38.45-26.815-49.244-36.764-22.766-58.518-60.879-58.518-101.862 0-15.683 12.65-28.5 28.5-28.5 15.683 0 28.5 12.65 28.5 28.5 0 21.25 11.974 41.15 31.706 53.46 34.234 21.417 54.303 58.012 53.63 98.15-1.015 61.39-51.102 111.644-112.151 112.657zM726.851 536.874c-15.683 0-28.5-12.647-28.5-28.5v-10.962c0-15.683 12.65-28.5 28.5-28.5 15.683 0 28.5 12.65 28.5 28.5v10.962c0.003 15.853-12.817 28.5-28.5 28.5z" />
<glyph unicode="&#xe928;" glyph-name="question-sign" d="M596.828 192.021h-192.005c-8.524 0-15.994-3.22-22.394-9.608-6.406-6.406-9.603-13.865-9.603-22.4v-192.013c0-8.535 3.208-16.006 9.603-22.4 6.4-6.386 13.862-9.6 22.394-9.6h192.005c8.524 0 16.014 3.206 22.389 9.6 6.417 6.394 9.62 13.865 9.62 22.4v192.013c0 8.535-3.194 15.994-9.62 22.4-6.375 6.406-13.865 9.608-22.389 9.608zM848.85 766.793c-21.873 40.288-50.132 74.272-84.808 102.013-34.653 27.729-73.614 49.874-116.805 66.401-43.2 16.521-86.131 24.793-128.806 24.793-162.126 0-285.858-70.935-371.198-212.807-4.262-6.93-5.733-14.394-4.402-22.397 1.339-7.992 5.472-14.661 12.405-19.993l131.205-100.009c6.932-4.259 13.601-6.392 20.004-6.392 9.603 0 17.863 4.273 24.804 12.806 38.394 47.994 66.933 78.66 85.598 92.001 22.938 15.462 51.729 23.19 86.397 23.19 32.532 0 61.192-8.535 86.002-25.589 24.798-17.070 37.186-36.805 37.186-59.205 0-25.056-6.655-45.332-19.993-60.8-13.33-15.462-35.738-30.389-67.211-44.794-41.589-18.665-79.739-47.602-114.39-86.803-34.676-39.204-52.001-80.938-52.001-125.203v-35.998c0-10.144 2.785-20.139 8.395-30.005 5.604-9.875 12.399-14.803 20.405-14.803h192.002c8.535 0 15.994 4.125 22.4 12.419 6.386 8.244 9.6 16.913 9.6 25.967 0 13.33 7.333 31.215 21.988 53.604 14.669 22.4 32.93 39.75 54.814 52.021 20.789 11.73 37.041 21.184 48.787 28.394 11.758 7.19 27.079 18.816 46.019 34.805 18.931 16.006 33.6 31.874 43.987 47.602 10.404 15.731 19.743 36.136 28.010 61.209 8.283 25.065 12.408 52.001 12.408 80.798-0.006 44.267-10.948 86.531-32.801 126.778z" />
<glyph unicode="&#xe929;" glyph-name="auction" d="M588.684 152.775h-511.794c-42.446 0-76.891-34.44-76.891-76.893v-139.817h665.573v139.817c0 42.452-34.442 76.893-76.889 76.893zM1010.201 141.929l-467.181 467.183 90.236 90.076c14.879-13.12 37.759-12.479 51.837 1.6 14.72 14.879 14.72 38.719 0 53.598l-194.55 194.392c-14.72 14.879-38.719 14.879-53.437 0-14.879-14.72-14.879-38.719 0-53.437l-1.6 1.6-247.032-246.869 1.6-1.758c-14.72 14.879-38.719 14.879-53.437 0-14.879-14.72-14.879-38.719 0-53.439l194.392-194.55c14.879-14.72 38.878-14.72 53.598 0 14.72 14.879 14.72 38.717 0 53.594l1.6-1.596 90.236 90.076 467.021-467.023c18.399-18.399 48.319-18.399 66.718 0s18.399 48.158 0 66.556z" />
<glyph unicode="&#xe92a;" glyph-name="down-arrow" d="M962.878 685.346c-12.701 12.701-33.34 12.701-46.040 0l-404.837-405.631-405.631 405.631c-12.701 12.701-33.34 12.701-46.040 0s-12.701-33.34 0-46.040l427.857-427.857c6.35-6.35 14.288-9.526 23.020-9.526 7.938 0 16.67 3.175 23.020 9.526l427.857 427.857c13.495 12.701 13.495 33.34 0.794 46.040z" />
<glyph unicode="&#xe92b;" d="M909.241 712.828l-247.172 247.172h-547.31v-1024h794.483z" />
<glyph unicode="&#xe92c;" d="M291.31 553.931h441.379c9.746 0 17.655 7.892 17.655 17.655s-7.91 17.655-17.655 17.655h-441.379c-9.746 0-17.655-7.892-17.655-17.655s7.91-17.655 17.655-17.655z" />
<glyph unicode="&#xe92d;" d="M291.31 695.172h176.552c9.746 0 17.655 7.892 17.655 17.655s-7.91 17.655-17.655 17.655h-176.552c-9.746 0-17.655-7.892-17.655-17.655s7.91-17.655 17.655-17.655z" />
<glyph unicode="&#xe92e;" d="M732.69 448h-441.379c-9.746 0-17.655-7.892-17.655-17.655s7.91-17.655 17.655-17.655h441.379c9.746 0 17.655 7.892 17.655 17.655s-7.91 17.655-17.655 17.655z" />
<glyph unicode="&#xe92f;" d="M732.69 306.759h-441.379c-9.746 0-17.655-7.892-17.655-17.655s7.91-17.655 17.655-17.655h441.379c9.746 0 17.655 7.892 17.655 17.655s-7.91 17.655-17.655 17.655z" />
<glyph unicode="&#xe930;" d="M732.69 165.517h-441.379c-9.746 0-17.655-7.892-17.655-17.655s7.91-17.655 17.655-17.655h441.379c9.746 0 17.655 7.892 17.655 17.655s-7.91 17.655-17.655 17.655z" />
<glyph unicode="&#xe931;" d="M662.069 960v-247.172h247.172z" />
<glyph unicode="&#xe932;" glyph-name="music-player1" d="M972.061 955.355c-4.030 3.526-9.347 5.13-14.72 4.496l-578.341-74.83c-9.309-1.213-16.268-9.123-16.268-18.507v-676.547c-32.406 37.126-82.945 61.099-139.903 61.099-97.889 0-177.234-70.539-177.234-157.533s79.345-157.533 177.234-157.533 177.234 70.539 177.234 157.533c0 6.194-0.504 12.276-1.287 18.302 0.746 2.015 1.287 4.123 1.287 6.399v541.066l541.029 70.017v-352.77c-32.424 37.107-82.964 61.080-139.921 61.080-97.889 0-177.234-70.539-177.234-157.533s79.345-157.533 177.234-157.533 177.234 70.539 177.234 157.533c0 1.716-0.224 3.377-0.28 5.074 0.037 0.504 0.28 0.933 0.28 1.437v654.738c0 5.373-2.313 10.485-6.343 14.011z" />
<glyph unicode="&#xe933;" glyph-name="notification2" d="M935.624 96.298l-73.258 122.112c-33.834 56.362-51.712 120.918-51.712 186.624v106.966c0 135.040-90.112 249.258-213.334 286.080v76.586c0 47.062-38.272 85.334-85.334 85.334s-85.334-38.272-85.334-85.334v-76.586c-123.22-36.822-213.332-151.040-213.332-286.080v-106.966c0-65.706-17.878-130.218-51.67-186.582l-73.258-122.112c-3.968-6.614-4.054-14.806-0.256-21.504s10.838-10.838 18.518-10.838h810.666c7.68 0 14.762 4.138 18.56 10.794 3.798 6.658 3.67 14.936-0.256 21.506zM377.63 21.334c24.064-50.262 75.008-85.334 134.356-85.334s110.294 35.072 134.358 85.334h-268.714z" />
<glyph unicode="&#xe934;" glyph-name="exit" d="M1003.967 520.276c-0.95 2.29-2.327 4.357-4.040 6.088l-223.4 223.381c-7.28 7.28-19.046 7.28-26.326 0s-7.28-19.046 0-26.326l191.637-191.637h-401.892c-10.296 0-18.618-8.322-18.618-18.618s8.322-18.618 18.618-18.618h401.892l-191.637-191.637c-7.28-7.28-7.28-19.046 0-26.326 3.631-3.631 8.397-5.455 13.163-5.455s9.533 1.825 13.163 5.455l223.4 223.4c1.731 1.713 3.091 3.779 4.040 6.070 1.88 4.543 1.88 9.681 0 14.224zM670.273 420.073c-10.296 0-18.618-8.322-18.618-18.618v-297.891h-186.182v707.491c0 8.118-5.25 15.286-12.977 17.743l-295.322 93.966h494.48v-297.891c0-10.296 8.322-18.618 18.618-18.618s18.618 8.322 18.618 18.618v316.509c0 10.296-8.322 18.618-18.618 18.618h-633.018c-0.596 0-1.117-0.279-1.694-0.335-1.043-0.093-1.955-0.335-2.942-0.596-1.75-0.465-3.314-1.098-4.822-2.011-0.484-0.298-1.061-0.298-1.527-0.633-0.577-0.428-1.024-0.968-1.545-1.434-0.317-0.298-0.652-0.559-0.95-0.875-1.415-1.527-2.569-3.221-3.426-5.083-0.168-0.372-0.261-0.745-0.41-1.117-0.782-2.085-1.303-4.264-1.303-6.535v-856.436c0-2.327 0.54-4.524 1.341-6.609 0.261-0.689 0.652-1.266 0.987-1.918 0.689-1.322 1.471-2.532 2.458-3.649 0.54-0.596 1.080-1.136 1.676-1.676 1.080-0.95 2.29-1.731 3.593-2.42 0.689-0.372 1.322-0.763 2.067-1.043 0.317-0.112 0.559-0.335 0.875-0.447l409.6-130.327c1.825-0.559 3.724-0.856 5.623-0.856 3.91 0 7.764 1.229 10.985 3.575 4.803 3.5 7.633 9.086 7.633 15.043v111.709h204.8c10.296 0 18.618 8.322 18.618 18.618v316.509c0 10.296-8.341 18.618-18.618 18.618z" />
<glyph unicode="&#xe935;" glyph-name="dollar-symbol" d="M654.413 494.841c-40.183 22.206-82.904 39.126-125.202 56.679-24.533 10.152-48.008 21.995-68.734 38.491-40.818 32.569-32.992 85.442 14.804 106.379 13.535 5.922 27.705 7.825 42.086 8.671 55.41 2.961 108.071-7.191 158.194-31.3 24.956-12.055 33.204-8.248 41.663 17.765 8.883 27.494 16.285 55.41 24.533 83.116 5.499 18.611-1.269 30.878-18.823 38.703-32.146 14.17-65.139 24.321-99.823 29.82-45.259 6.979-45.259 7.191-45.47 52.661-0.211 64.081-0.211 64.081-64.504 64.081-9.306 0-18.611 0.211-27.917 0-30.032-0.846-35.107-6.133-35.953-36.376-0.423-13.535 0-27.071-0.211-40.818-0.211-40.183-0.423-39.549-38.914-53.507-93.056-33.838-150.581-97.285-156.714-198.8-5.499-89.883 41.452-150.581 115.262-194.782 45.47-27.282 95.805-43.355 144.025-64.716 18.823-8.248 36.799-17.765 52.449-30.878 46.316-38.28 37.857-101.938-17.131-126.048-29.397-12.901-60.486-16.073-92.421-12.055-49.277 6.133-96.439 19.034-140.852 42.086-26.013 13.535-33.627 9.94-42.509-18.188-7.614-24.321-14.381-48.854-21.149-73.387-9.094-32.992-5.71-40.818 25.802-56.256 40.183-19.457 83.116-29.397 126.894-36.376 34.261-5.499 35.319-6.979 35.742-42.509 0.211-16.073 0.211-32.358 0.423-48.431 0.211-20.303 9.94-32.146 30.878-32.569 23.687-0.423 47.585-0.423 71.272 0.211 19.457 0.423 29.397 10.997 29.397 30.666 0 21.995 1.057 44.201 0.211 66.196-1.057 22.418 8.671 33.838 30.243 39.76 49.7 13.535 91.998 40.183 124.568 79.943 90.518 109.975 56.045 270.918-72.118 341.768z" />
<glyph unicode="&#xe936;" glyph-name="money-bag-with-dollar-symbol" d="M581.647 279.781c-3.824 4.188-8.662 7.32-13.662 9.93-10.886 5.677-22.792 9.12-34.613 12.228v-91.601c19.187 2.169 41.215 9.132 51.289 27.045v0c4.809 8.556 5.766 19.069 3.807 28.594-1.063 5.161-3.258 9.898-6.821 13.804zM584.56 237.208c0.039 0.065 0.060 0.106 0.101 0.176v0c-0.034-0.058-0.067-0.116-0.101-0.176zM443.374 426.213c-3.299-4.817-5.368-10.289-5.939-16.105-0.571-5.829-0.251-12.313 1.964-17.799 2.108-5.229 6.525-9.089 11.084-12.197 5.115-3.479 10.742-6.197 16.472-8.501 4.807-1.935 10.214-3.785 16.043-5.573v82.888c-14.725-3.142-30.813-9.85-39.622-22.712zM585.042 238.060c-0.12-0.214-0.251-0.439-0.378-0.675v0c0.149 0.275 0.267 0.477 0.378 0.675zM585.524 238.918c0.031 0.058 0.036 0.063 0 0v0zM565.643 737.194c77.898 65.438 129.948 212.86 97.916 219.308-42.562 8.571-134.986-29.011-179.659-35.632-63.361-7.65-132.37 68.708-171.105 26.146-31.495-34.606 22.58-160.455 107.18-215.281-252.403-124.052-607.171-746.803 11.742-791.989 856.372-62.525 427.556 676.563 133.926 797.449zM639.189 246.063c-2.634-24.278-15.5-46.234-34.733-61.139-20.307-15.739-45.779-23.059-71.086-25.11v-26.825c0-7.178-3.135-14.12-8.508-18.871-7.385-6.535-18.238-8.147-27.201-4.017-8.85 4.072-14.664 13.149-14.664 22.888v29.319c-4.34 0.824-8.648 1.805-12.905 2.973-23.652 6.498-45.591 19.165-61.616 37.907-7.983 9.342-14.491 19.941-18.992 31.384-1.176 2.99-2.224 6.036-3.142 9.115-0.831 2.788-1.689 5.621-1.985 8.527-0.499 4.874 0.467 9.848 2.74 14.19 4.67 8.932 14.51 14.327 24.558 13.431 9.889-0.877 18.556-7.739 21.669-17.165 0.959-2.903 1.61-5.879 2.687-8.751 1.067-2.853 2.357-5.626 3.872-8.267 2.993-5.2 6.742-9.995 11.060-14.156 8.901-8.576 20.238-14.149 32.056-17.464v99.663c-23.11 5.983-46.964 13.71-66.047 28.548-9.274 7.214-17.144 16.178-22.298 26.787-5.438 11.197-7.691 23.671-7.783 36.061-0.094 12.58 2.296 25.049 7.544 36.512 4.915 10.732 11.992 20.368 20.669 28.355 18.553 17.076 43.198 26.601 67.917 30.1v27.847c0 7.176 3.135 14.12 8.508 18.871 7.388 6.532 18.235 8.147 27.201 4.017 8.848-4.075 14.664-13.149 14.664-22.888v-27.695c3.294-0.414 6.578-0.911 9.845-1.504 24.274-4.393 48.015-14.416 65.766-31.917 8.409-8.289 15.293-18.165 20.134-28.936 1.352-3.005 2.535-6.079 3.559-9.214 0.954-2.923 1.913-5.932 2.369-8.983 0.728-4.87-0.014-9.901-2.099-14.356-4.27-9.127-13.845-14.939-23.919-14.508-9.898 0.431-18.867 6.877-22.411 16.129-1.055 2.752-1.583 5.665-2.66 8.409-1.087 2.778-2.494 5.429-4.115 7.932-3.152 4.867-7.236 9.041-11.898 12.479-10.096 7.455-22.341 11.339-34.577 13.51v-95.374c14.541-3.482 29.095-7.279 43.027-12.773 21.057-8.303 41.010-21.035 52.504-41.111-1.783 3.128-3.518 6.176 0.060-0.104 3.513-6.168 1.836-3.229 0.072-0.137 9.144-16.115 12.149-35.384 10.161-53.689zM584.293 236.735c-0.147-0.263-0.275-0.494-0.376-0.67 0.087 0.152 0.217 0.381 0.376 0.67z" />
<glyph unicode="&#xe937;" glyph-name="coding" d="M119.467 72.533c-65.86 0-119.467-53.606-119.467-119.467 0-9.438 7.629-17.067 17.067-17.067h204.8c9.438 0 17.067 7.629 17.067 17.067 0 65.86-53.606 119.467-119.467 119.467zM35.857-29.867c6.793 33.365 33.178 59.58 66.543 66.389v-32.256h34.133v32.256c33.365-6.827 59.75-33.024 66.543-66.389h-167.219zM1006.933 226.133h-29.935c-0.939 2.372-1.911 4.727-2.97 7.1l21.18 21.18c6.673 6.673 6.673 17.459 0 24.132l-72.397 72.397c-3.533 3.533-8.192 5.069-12.817 4.847 27.051 14.353 45.739 42.462 45.739 75.145v443.733c0 47.053-38.281 85.333-85.333 85.333h-785.067c-47.053 0-85.333-38.281-85.333-85.333v-443.733c0-47.053 38.281-85.333 85.333-85.333h222.72l-64.478-119.467h-30.242c-32.939 0-59.733-26.795-59.733-59.733s26.795-59.733 59.733-59.733h366.933c0-9.438 7.629-17.067 17.067-17.067h29.935c0.939-2.372 1.911-4.727 2.97-7.1l-21.18-21.18c-6.673-6.673-6.673-17.459 0-24.132l72.397-72.397c6.673-6.673 17.459-6.673 24.132 0l21.18 21.18c2.372-1.058 4.727-2.031 7.1-2.97v-29.935c0-9.438 7.629-17.067 17.067-17.067h102.4c9.438 0 17.067 7.629 17.067 17.067v29.935c2.372 0.939 4.727 1.911 7.1 2.97l21.18-21.18c6.673-6.673 17.459-6.673 24.132 0l72.397 72.397c6.673 6.673 6.673 17.459 0 24.132l-21.18 21.18c1.058 2.372 2.031 4.727 2.97 7.1h29.935c9.438 0 17.067 7.629 17.067 17.067v102.4c0 9.438-7.629 17.067-17.067 17.067zM34.133 874.667c0 28.228 22.972 51.2 51.2 51.2h785.067c28.228 0 51.2-22.972 51.2-51.2v-358.4h-887.467v358.4zM85.333 379.733c-28.228 0-51.2 22.972-51.2 51.2v51.2h887.467v-51.2c0-28.228-22.972-51.2-51.2-51.2h-785.067zM898.458 350.72l-20.958-20.958c-2.372 1.058-4.727 2.031-7.1 2.97v12.868c9.882 0 19.217 2.014 28.058 5.12zM733.867 345.6v-12.868c-2.372-0.939-4.727-1.911-7.1-2.97l-15.838 15.838h22.938zM676.096 345.6l-14.711-14.711-10.018 14.711h24.73zM580.267 140.8h-366.933c-14.114 0-25.6 11.486-25.6 25.6s11.486 25.6 25.6 25.6h366.933v-51.2zM282.359 226.15l64.469 119.45h263.236l26.761-39.27-27.767-27.767c-6.673-6.673-6.673-17.459 0-24.132l21.18-21.18c-1.058-2.372-2.031-4.727-2.97-7.1h-344.909zM989.867 123.733h-24.9c-7.458 0-14.029-4.83-16.282-11.93-2.594-8.243-6.093-16.64-10.411-24.9-3.447-6.622-2.202-14.694 3.072-19.968l17.681-17.681-48.265-48.265-17.681 17.681c-5.291 5.274-13.346 6.502-19.968 3.072-8.26-4.318-16.657-7.817-24.9-10.411-7.117-2.27-11.947-8.841-11.947-16.299v-24.9h-68.267v24.9c0 7.458-4.83 14.029-11.93 16.282-8.243 2.594-16.64 6.093-24.9 10.411-6.622 3.43-14.694 2.202-19.968-3.072l-17.681-17.681-48.265 48.265 17.681 17.681c5.274 5.274 6.519 13.346 3.072 19.968-4.318 8.26-7.817 16.657-10.411 24.9-2.27 7.117-8.841 11.947-16.299 11.947h-24.9v68.267h24.9c7.458 0 14.029 4.83 16.282 11.93 2.594 8.243 6.093 16.64 10.411 24.9 3.447 6.622 2.202 14.694-3.072 19.968l-17.681 17.681 48.265 48.265 17.681-17.681c5.274-5.291 13.346-6.519 19.968-3.072 8.26 4.318 16.657 7.817 24.9 10.411 7.117 2.27 11.947 8.841 11.947 16.299v24.9h68.267v-24.9c0-7.458 4.83-14.029 11.93-16.282 8.243-2.594 16.64-6.093 24.9-10.411 6.622-3.447 14.677-2.219 19.968 3.072l17.681 17.681 48.265-48.265-17.681-17.681c-5.274-5.274-6.519-13.346-3.072-19.968 4.318-8.26 7.817-16.657 10.411-24.9 2.27-7.117 8.841-11.947 16.299-11.947h24.9v-68.267zM802.133 260.267c-56.474 0-102.4-45.926-102.4-102.4s45.926-102.4 102.4-102.4 102.4 45.926 102.4 102.4-45.926 102.4-102.4 102.4zM802.133 89.6c-37.649 0-68.267 30.618-68.267 68.267s30.618 68.267 68.267 68.267 68.267-30.618 68.267-68.267-30.618-68.267-68.267-68.267zM336.333 828.467l-24.132 24.132-119.467-119.467c-6.673-6.673-6.673-17.459 0-24.132l119.467-119.467 24.132 24.132-107.401 107.401 107.401 107.401zM711.799 733.133l-119.467 119.467-24.132-24.132 107.401-107.401-107.401-107.401 24.132-24.132 119.467 119.467c6.673 6.673 6.673 17.459 0 24.132zM360.183 592.16l153.555 307.111 30.529-15.264-153.555-307.111-30.529 15.264zM665.6 618.667h34.133v-34.133h-34.133v34.133zM733.867 618.667h34.133v-34.133h-34.133v34.133zM802.133 618.667h34.133v-34.133h-34.133v34.133z" />
<glyph unicode="&#xe938;" glyph-name="clock-circular-outline" d="M512 960c-282.317 0-512-229.683-512-512s229.683-512 512-512 512 229.683 512 512-229.683 512-512 512zM512 44.945c-222.243 0-403.066 180.802-403.066 403.055s180.823 403.055 403.066 403.055 403.066-180.802 403.066-403.055-180.823-403.055-403.066-403.055zM778.834 463.809h-230.094v276.657c0 23.281-18.876 42.157-42.157 42.157s-42.157-18.876-42.157-42.157v-318.814c0-23.281 18.876-42.157 42.157-42.157h272.252c23.281 0 42.157 18.876 42.157 42.157s-18.876 42.157-42.157 42.157z" />
<glyph unicode="&#xe939;" d="M944 816h-864c-44.11 0-80-35.89-80-80v-576c0-44.11 35.89-80 80-80h864c44.11 0 80 35.89 80 80v576c0 44.11-35.89 80-80 80z" />
<glyph unicode="&#xe93a;" d="M352 496h-192c-17.674 0-32 14.326-32 32v128c0 17.674 14.326 32 32 32h192c17.674 0 32-14.326 32-32v-128c0-17.674-14.326-32-32-32z" />
<glyph unicode="&#xe93b;" d="M240 288h-80c-17.674 0-32 14.326-32 32v16c0 17.674 14.326 32 32 32h80c17.674 0 32-14.326 32-32v-16c0-17.674-14.326-32-32-32z" />
<glyph unicode="&#xe93c;" d="M448 288h-80c-17.674 0-32 14.326-32 32v16c0 17.674 14.326 32 32 32h80c17.674 0 32-14.326 32-32v-16c0-17.674-14.326-32-32-32z" />
<glyph unicode="&#xe93d;" d="M656 288h-80c-17.674 0-32 14.326-32 32v16c0 17.674 14.326 32 32 32h80c17.674 0 32-14.326 32-32v-16c0-17.674-14.326-32-32-32z" />
<glyph unicode="&#xe93e;" d="M864 288h-80c-17.674 0-32 14.326-32 32v16c0 17.674 14.326 32 32 32h80c17.674 0 32-14.326 32-32v-16c0-17.674-14.326-32-32-32z" />
<glyph unicode="&#xe93f;" d="M464 192h-320c-8.844 0-16 7.164-16 16s7.156 16 16 16h320c8.844 0 16-7.164 16-16s-7.156-16-16-16z" />
<glyph unicode="&#xe940;" d="M672 192h-144c-8.844 0-16 7.164-16 16s7.156 16 16 16h144c8.844 0 16-7.164 16-16s-7.156-16-16-16z" />
<glyph unicode="&#xe941;" d="M736 527.996c-17.578-19.638-43.122-31.996-71.552-31.996-53.020 0-96 42.98-96 96s42.98 96 96 96c28.426 0 53.966-12.354 71.544-31.986z" />
<glyph unicode="&#xe942;" d="M384 576h-160v32h160v32h-160v48h-32v-192h32v48h160z" />
<glyph unicode="&#xe943;" d="M896 592c0-53.019-42.981-96-96-96s-96 42.981-96 96c0 53.019 42.981 96 96 96s96-42.981 96-96z" />
<glyph unicode="&#xe944;" glyph-name="credit-card3" d="M996.818 608.588l-324.252 324.248c-17.504 17.502-40.846 27.142-65.73 27.142-24.882 0-48.226-9.636-65.73-27.138l-513.964-513.966c-17.502-17.504-27.142-40.844-27.142-65.728s9.64-48.228 27.142-65.728l39.984-39.984c0.004-0.002 0.006-0.006 0.010-0.010s0.008-0.008 0.012-0.012l268.72-268.72h-37.208c-11.78 0-21.332-9.55-21.332-21.332 0-11.78 9.552-21.332 21.332-21.332h118.378c0.028 0 0.054-0.002 0.082-0.002s0.054 0.002 0.082 0.002l308.106-0.004c11.78 0 21.332 9.552 21.332 21.332 0 11.782-9.552 21.332-21.332 21.332l-226.928 0.004 498.44 498.44c36.24 36.244 36.24 95.216-0.002 131.456zM966.65 507.3l-513.968-513.968c-9.426-9.424-22.026-14.62-35.484-14.64h-0.162c-13.454 0.022-26.050 5.216-35.472 14.64l-269.174 269.176 493.59 493.594c8.33 8.33 8.33 21.838 0 30.168-8.332 8.33-21.836 8.33-30.17-0.002l-493.59-493.594-24.912 24.912c-9.442 9.442-14.642 22.070-14.642 35.558s5.2 26.118 14.644 35.562l513.964 513.964c9.444 9.442 22.074 14.642 35.562 14.642s26.118-5.2 35.562-14.644l115.406-115.404-493.596-493.6c-8.33-8.328-8.33-21.836 0-30.17 4.166-4.164 9.626-6.246 15.084-6.246s10.918 2.084 15.084 6.248l493.596 493.598 178.678-178.672c19.606-19.608 19.604-51.514 0-71.122zM525.602 343.872c-8.33 8.33-21.834 8.328-30.17 0l-167.868-167.866c-8.33-8.33-8.33-21.836 0-30.17 4.166-4.166 9.626-6.248 15.084-6.248s10.918 2.084 15.084 6.248l167.868 167.866c8.332 8.334 8.332 21.84 0.002 30.17zM456.75 184.518l-68.85-68.85c-8.33-8.33-8.33-21.838 0-30.17 4.166-4.164 9.626-6.248 15.084-6.248 5.462 0 10.918 2.084 15.084 6.248l68.85 68.85c8.33 8.33 8.33 21.838 0 30.17s-21.832 8.332-30.168 0zM520.108 247.87l-9.050-9.048c-8.332-8.33-8.332-21.836-0.002-30.17 4.164-4.166 9.626-6.25 15.084-6.25s10.918 2.084 15.082 6.25l9.050 9.048c8.332 8.33 8.332 21.836 0.002 30.168-8.326 8.33-21.836 8.332-30.166 0.002zM814.146 632.414c-4 4-9.426 6.248-15.084 6.248s-11.082-2.248-15.084-6.248l-90.51-90.508c-4-4.002-6.248-9.426-6.248-15.084s2.248-11.084 6.248-15.084l60.34-60.334c4.166-4.166 9.626-6.248 15.084-6.248 5.462 0 10.918 2.084 15.084 6.248l90.506 90.504c8.33 8.33 8.33 21.838 0 30.168l-60.336 60.338zM768.89 496.654l-30.17 30.168 60.34 60.338 30.168-30.17-60.338-60.336zM640.678 799.628c5.462 0 10.922 2.084 15.086 6.252l9.050 9.054c8.328 8.332 8.326 21.84-0.006 30.168-8.33 8.328-21.84 8.326-30.168-0.006l-9.050-9.054c-8.328-8.332-8.326-21.84 0.006-30.168 4.166-4.166 9.622-6.246 15.082-6.246zM214.43 243.886l-9.050-9.050c-8.33-8.328-8.33-21.836 0-30.17 4.166-4.164 9.626-6.246 15.084-6.246s10.918 2.082 15.084 6.246l9.050 9.050c8.33 8.332 8.33 21.84 0 30.17-8.332 8.332-21.836 8.332-30.168 0z" />
<glyph unicode="&#xe945;" glyph-name="money2" d="M683.907 303.285c-24.262 0-44 17.084-44 38.082 0 21 19.738 38.084 44 38.084s44-17.084 44-38.084c0-11.044 8.956-20 20-20s20 8.956 20 20c0 36.65-27.308 67.466-64 75.83v10.402c0 11.044-8.956 20-20 20s-20-8.956-20-20v-10.402c-36.692-8.364-64-39.18-64-75.83 0-43.054 37.682-78.082 84-78.082 24.262 0 44-17.084 44-38.084s-19.738-38.084-44-38.084c-24.262 0-44 17.084-44 38.084 0 11.044-8.956 20-20 20s-20-8.956-20-20c0-36.65 27.308-67.466 64-75.83v-8.64c0-11.044 8.956-20 20-20s20 8.956 20 20v8.64c36.692 8.364 64 39.18 64 75.83 0 43.056-37.682 78.084-84 78.084zM902.962 422.249c-26.126 40.71-62.934 73.286-106.444 94.202-9.958 4.788-21.908 0.596-26.692-9.36-4.786-9.956-0.596-21.904 9.36-26.69 75.822-36.448 124.812-114.326 124.812-198.402 0-35.976-8.868-71.654-25.642-103.182-5.188-9.75-1.49-21.862 8.262-27.050 2.992-1.592 6.208-2.348 9.376-2.348 7.156 0 14.078 3.852 17.674 10.61 19.842 37.288 30.33 79.466 30.33 121.97 0 49.92-14.19 98.418-41.036 140.25zM715.345 541.997l-1.346 0.002c-11.044 0-20-8.954-20-20s8.956-20 20-20l1.158-0.002c0.032 0 0.062 0 0.096 0 11.002 0 19.946 8.892 19.998 19.906 0.050 11.046-8.862 20.042-19.906 20.094zM588.813 83.598c-75.82 36.45-124.81 114.328-124.81 198.402 0 35.976 8.868 71.654 25.642 103.182 5.188 9.75 1.49 21.862-8.262 27.050-9.748 5.188-21.864 1.49-27.050-8.262-19.842-37.29-30.33-79.466-30.33-121.97 0-49.92 14.19-98.416 41.036-140.25 26.126-40.71 62.934-73.286 106.444-94.204 2.794-1.344 5.746-1.978 8.652-1.978 7.448 0 14.596 4.178 18.040 11.338 4.782 9.956 0.594 21.906-9.362 26.692zM654.003 62l-1.158 0.004c-11.096 0.020-20.040-8.858-20.090-19.906-0.052-11.046 8.864-20.042 19.908-20.094l1.34-0.004c11.044 0 20 8.956 20 20s-8.956 20-20 20zM774.816 609.665c-2.434 5.8-5.416 11.266-8.886 16.336h52.068c50.728 0 92 41.272 92 92s-41.272 92-92 92h-160.16c10.182 14.804 16.16 32.714 16.16 52 0 50.728-41.272 92-92 92h-489.999c-50.728 0-92-41.272-92-92s41.272-92 92-92h160.16c-10.182-14.804-16.16-32.714-16.16-52s5.976-37.196 16.16-52h-52.16c-50.728 0-92-41.272-92-92 0-29.134 13.628-55.132 34.83-72-21.202-16.868-34.83-42.866-34.83-72s13.628-55.132 34.83-72c-21.202-16.868-34.83-42.866-34.83-72s13.628-55.132 34.83-72c-21.202-16.868-34.83-42.866-34.83-72 0-50.728 41.272-92 92-92h235.7c62.092-66.414 150.424-108.002 248.302-108.002 187.476 0 339.999 152.524 339.999 339.999 0 156.034-105.66 287.835-249.184 327.665zM817.998 770c28.674 0 52-23.328 52-52s-23.326-52-52-52h-489.999c-28.674 0-52 23.328-52 52s23.326 52 52 52h489.999zM92 810c-28.674 0-52 23.328-52 52s23.326 52 52 52h489.999c28.674 0 52-23.328 52-52s-23.326-52-52-52h-489.999zM200 626.001h489.999c8.056 0 15.77-1.872 22.69-5.224-9.46 0.794-19.024 1.222-28.688 1.222-93.89 0-179.010-38.258-240.598-99.998h-243.404c-28.672 0-52 23.328-52 52s23.328 52 52 52zM200 482.001h209.23c-22.704-31.106-40.258-66.19-51.406-104h-157.824c-28.674 0-52 23.326-52 52 0 28.672 23.326 52 52 52zM200 338.001h148.64c-3.034-18.226-4.638-36.928-4.638-56.002 0-16.292 1.178-32.312 3.404-47.998h-147.406c-28.674 0-52 23.326-52 52s23.326 52 52 52zM200 90.002c-28.674 0-52 23.326-52 52s23.326 52 52 52h155.572c10.092-37.626 26.486-72.692 47.986-104h-203.558zM684.001-18c-165.42 0-299.999 134.58-299.999 299.999s134.58 299.999 299.999 299.999 299.999-134.58 299.999-299.999-134.58-299.999-299.999-299.999z" />
<glyph unicode="&#xe946;" d="M857.752 695.44c1.734 14.090 2.64 28.436 2.64 42.994 0 122.366-99.198 221.566-221.566 221.566h-370.284c-23.292 0-43.178-16.82-47.042-39.788l-136.44-810.95c-4.896-29.1 17.536-55.618 47.042-55.618h135.422c23.292 0 43.552 16.808 47.414 39.778 0 0 0.226 1.346 0.634 3.77h0.002l-18.872-112.172c-4.312-25.646 15.458-49.020 41.464-49.020h118.474c20.53 0 38.058 14.826 41.462 35.070l33.658 200.040c5.802 34.484 35.656 59.734 70.622 59.734h31.124c169.060 0 306.108 137.050 306.108 306.108 0 65.418-32.336 123.244-81.862 158.488z" />
<glyph unicode="&#xe947;" d="M857.752 695.44c-21.188-172.358-168.088-305.82-346.172-305.82h-103.33c-23.322 0-43.464-15.534-49.782-37.498l-61.764-367.098c-4.314-25.648 15.456-49.024 41.462-49.024h118.474c20.53 0 38.058 14.826 41.462 35.070l33.658 200.040c5.802 34.484 35.656 59.734 70.622 59.734h31.124c169.060 0 306.108 137.050 306.108 306.108v0c0 65.418-32.336 123.244-81.862 158.488z" />
<glyph unicode="&#xe948;" d="M408.25 389.62h103.33c178.086 0 324.986 133.462 346.172 305.818-31.776 22.612-70.608 35.956-112.58 35.956h-269.7c-30.706 0-56.924-22.174-62.020-52.454l-54.986-326.816c6.318 21.964 26.462 37.496 49.784 37.496z" />
<glyph unicode="&#xe949;" glyph-name="wallet" d="M975.18 360.212h-15.324v138.030c0 21.852-10.876 41.2-27.486 52.956v18.794c0 27.262-22.178 49.44-49.44 49.44h-11.442l43.778 64.24c14.674 21.532 9.094 50.99-12.438 65.666l-297.062 202.44c-10.43 7.11-23.002 9.734-35.41 7.38-12.402-2.35-23.148-9.388-30.256-19.82l-256.402-376.246h-71.35l17.214 174.26c0.194 1.964 1.47 3.666 3.25 4.336 22.178 8.362 41.398 23.978 54.118 43.97 1.002 1.574 2.892 2.474 4.848 2.276l111.91-11.056c8.024-0.778 15.162 5.066 15.954 13.086s-5.066 15.162-13.086 15.954l-111.91 11.056c-12.99 1.272-25.378-4.714-32.338-15.65-9.352-14.7-23.484-26.18-39.79-32.328-12.274-4.628-20.702-15.652-21.998-28.774l-17.496-177.128h-18.606l27.224 275.608c0.98 9.92 9.834 17.208 19.766 16.214l226.148-22.34c8.020-0.774 15.162 5.066 15.954 13.086s-5.066 15.162-13.086 15.954l-226.148 22.34c-25.928 2.558-49.114-16.452-51.676-42.384l-21.944-222.14h-37.37c-27.26 0-49.44-22.178-49.44-49.44v-12.82c-22.302-10.268-37.83-32.812-37.83-58.93v-497.39c0-35.76 29.092-64.852 64.854-64.852h814.134c35.76 0 64.852 29.092 64.852 64.852v138.028h15.324c18.088 0 32.802 14.714 32.802 32.8v155.73c0.002 18.088-14.714 32.802-32.802 32.802zM882.93 590.248v0c11.172 0.002 20.258-9.086 20.258-20.258v-7.434c-2.684 0.34-5.41 0.534-8.184 0.534h-61.91l18.506 27.158h31.33zM564.214 922.906c2.72 3.99 6.83 6.682 11.574 7.582 1.134 0.214 2.272 0.322 3.402 0.322 3.594 0 7.106-1.076 10.142-3.144l297.062-202.44c8.236-5.614 10.372-16.882 4.76-25.118l-93.372-137.012h-22.408l45.778 67.174c7.424 10.894 8.036 24.758 1.592 36.184-8.564 15.18-12.036 33.054-9.776 50.332 1.68 12.854-3.976 25.402-14.76 32.75l-153.996 104.944c-10.786 7.35-24.534 8.024-35.882 1.758-15.25-8.42-33.156-11.726-50.416-9.31-12.8 1.796-25.782-3.984-33.096-14.714l-183.398-269.12h-22.408l245.202 359.812zM570.64 675.124c-63.542 0-115.702-49.546-119.952-112.030h-73.958l172.198 252.686c0.002 0 0.002 0 0.002 0 0.978 1.438 2.6 2.294 4.266 2.294 0.222 0 0.444-0.016 0.666-0.046 23.476-3.284 47.826 1.208 68.57 12.662 1.632 0.904 3.728 0.774 5.344-0.326l153.998-104.946c1.612-1.1 2.498-3.004 2.258-4.852-3.074-23.498 1.65-47.806 13.296-68.45 0.934-1.658 0.82-3.782-0.288-5.412l-56.976-83.608h-49.466c-4.254 62.482-56.412 112.028-119.958 112.028zM661.336 563.092h-181.39c4.18 46.378 43.248 82.848 90.694 82.848 47.448 0.002 86.518-36.47 90.696-82.848zM83.028 569.992c0 11.172 9.086 20.26 20.258 20.26h34.488l-2.682-27.158h-52.064v6.898zM45.198 498.242c0 19.668 16.002 35.67 35.672 35.67h814.134c19.67 0 35.67-16.002 35.67-35.67v-40.488h-885.476v40.488zM930.674 0.852c0-19.668-16-35.67-35.67-35.67h-814.134c-19.67 0-35.672 16.002-35.672 35.67v40.488h78.684c8.060 0 14.59 6.532 14.59 14.59s-6.532 14.59-14.59 14.59h-78.684v358.052h885.476v-68.36h-138.734c-43.712 0-81.576-25.48-99.546-62.362-0.060-0.124-0.128-0.244-0.19-0.368-0.152-0.314-0.284-0.64-0.432-0.956-2.14-4.546-4-9.252-5.514-14.108-0.004-0.014-0.008-0.026-0.012-0.040-3.23-10.378-4.972-21.404-4.972-32.832 0-61.022 49.644-110.666 110.664-110.666h138.734v-68.36h-713.362c-8.060 0-14.59-6.532-14.59-14.59s6.532-14.59 14.59-14.59h713.364v-40.488zM978.802 171.682c0-1.996-1.624-3.62-3.622-3.62h-183.236c-30.89 0-57.822 17.278-71.636 42.676-0.628 1.154-1.228 2.326-1.802 3.512-1.146 2.374-2.18 4.812-3.094 7.308-3.204 8.732-4.952 18.16-4.952 27.988s1.75 19.256 4.952 27.988c0.916 2.494 1.95 4.932 3.094 7.308 0.574 1.186 1.174 2.358 1.802 3.512 13.814 25.398 40.746 42.676 71.636 42.676h183.236c1.996 0 3.622-1.624 3.622-3.62v-155.728zM795.362 308.746c-32.644 0-59.2-26.558-59.2-59.2s26.556-59.198 59.2-59.198c32.644 0 59.2 26.556 59.2 59.198s-26.556 59.2-59.2 59.2zM795.362 219.53c-16.552 0-30.018 13.466-30.018 30.016s13.466 30.018 30.018 30.018 30.018-13.466 30.018-30.018-13.466-30.016-30.018-30.016z" />
<glyph unicode="&#xe94a;" glyph-name="calendar1" d="M927.6 483.54v382.192c0 16.568-13.432 30-30 30h-146.734v34.268c0 16.568-13.432 30-30 30s-30-13.432-30-30v-34.268h-197.066v34.268c0 16.568-13.432 30-30 30s-30-13.432-30-30v-34.268h-197.066v34.268c0 16.568-13.432 30-30 30s-30-13.432-30-30v-34.268h-146.734c-16.568 0-30-13.432-30-30v-803.334c0-16.568 13.432-30 30-30h446.46c58.006-59.432 138.93-96.398 228.338-96.398 176.008 0 319.202 143.192 319.202 319.2 0 89.41-36.966 170.334-96.4 228.34zM60 835.732h807.6v-132.8h-807.6v132.8zM60 92.4v550.532h807.6v-113.276c-47.698 28.4-103.372 44.744-162.8 44.744-176.006 0-319.2-143.192-319.2-319.2 0-59.428 16.344-115.104 44.744-162.8h-370.344zM704.798-4c-142.922 0-259.2 116.276-259.2 259.2s116.276 259.2 259.2 259.2 259.202-116.278 259.202-259.2c0-142.924-116.278-259.2-259.202-259.2zM801.2 285.2h-66.4v66.4c0 16.568-13.432 30-30 30s-30-13.432-30-30v-96.4c0-16.568 13.432-30 30-30h96.4c16.568 0 30 13.432 30 30s-13.432 30-30 30z" />
<glyph unicode="&#xe94b;" glyph-name="open-book1" d="M989.636 750.122l-71.78 0.003v74.304c0 17.011-12.447 31.465-29.272 33.982-2.938 0.441-72.866 10.599-157.071-4.723-93.873-17.080-168.739-59.202-219.515-122.88-50.779 63.677-125.645 105.799-219.515 122.88-84.209 15.319-154.137 5.165-157.071 4.723-16.825-2.52-29.272-16.974-29.272-33.982v-74.304h-71.78c-18.973 0-34.361-15.388-34.361-34.364v-647.514c0-11.126 5.385-21.563 14.457-28.010s20.701-8.102 31.206-4.441c2.579 0.893 260.071 88.771 452.076 1.189 9.061-4.134 19.463-4.134 28.524 0 191.467 87.333 449.51-0.303 452.076-1.189 3.682-1.283 7.496-1.914 11.295-1.914 7.044 0 14.015 2.165 19.911 6.351 9.071 6.447 14.457 16.884 14.457 28.010v647.514c-0.003 18.977-15.388 34.364-34.364 34.364zM68.725 114.224v567.177h37.416v-457.613c0-9.985 4.368-19.466 11.922-25.993s17.601-9.454 27.476-7.995c1.896 0.276 151.172 20.77 260.233-54.058-134.344 22.973-268.801-3.6-337.047-21.518zM477.638 166.73c-48.035 43.401-110.602 72.749-185.154 86.312-35.878 6.53-69.163 8.433-95.78 8.433-7.902 0-15.219-0.169-21.835-0.434v531.833h-0.003c66.043 2.979 226.7-4.082 302.772-133.040v-493.104zM546.359 659.831c75.8 128.406 236.709 135.788 302.772 132.958v-531.747c-28.903 1.165-71.094 0.469-117.618-7.999-74.552-13.564-137.119-42.908-185.154-86.312v493.101zM618.111 135.721c109.075 74.872 258.43 54.358 260.292 54.082 9.899-1.486 19.939 1.424 27.517 7.947 7.578 6.53 11.936 16.032 11.936 26.038v457.609h37.416v-567.173c-68.266 17.925-202.779 44.508-337.16 21.497z" />
<glyph unicode="&#xe94c;" glyph-name="create-new-pencil-button" d="M0 152.178v-216.178h216.178l625.778 631.467-216.178 216.178-625.778-631.467zM1006.933 732.444c22.756 22.756 22.756 56.889 0 79.644l-130.844 130.847c-22.756 22.756-56.889 22.756-79.644 0l-102.4-102.4 216.178-216.178 96.711 108.087z" />
<glyph unicode="&#xe94d;" glyph-name="search" d="M991.284 27.298l-243.714 253.474c62.663 74.491 96.997 168.216 96.997 265.788 0 227.967-185.473 413.44-413.44 413.44s-413.44-185.473-413.44-413.44 185.473-413.44 413.44-413.44c85.582 0 167.137 25.813 236.865 74.815l245.565-255.398c10.264-10.66 24.069-16.538 38.863-16.538 14.003 0 27.287 5.339 37.371 15.046 21.427 20.618 22.11 54.808 1.492 76.253zM431.128 852.146c168.504 0 305.586-137.082 305.586-305.586s-137.082-305.586-305.586-305.586-305.586 137.082-305.586 305.586 137.082 305.586 305.586 305.586z" />
<glyph unicode="&#xe94e;" glyph-name="youtube-logo" d="M920.579 430.863c-4.946 22.482-15.91 41.336-32.856 56.569-16.96 15.233-36.481 24.188-58.583 26.856-70.091 7.618-175.802 11.424-317.145 11.424-141.339 0-246.862-3.809-316.579-11.424-22.47-2.668-42.089-11.622-58.857-26.856-16.764-15.239-27.812-34.095-33.148-56.569-9.903-44.198-14.857-110.863-14.857-200.008 0-90.664 4.954-157.335 14.857-200.006 4.96-22.466 15.914-41.336 32.866-56.563 16.952-15.239 36.477-23.999 58.569-26.287 70.103-8 175.822-12.001 317.153-12.001 141.321 0 247.060 4.001 317.137 12.001 22.102 2.288 41.526 11.048 58.294 26.287 16.766 15.225 27.814 34.097 33.144 56.563 9.903 44.198 14.863 110.863 14.863 200.006-0.002 90.666-4.962 157.339-14.859 200.008zM330.291 373.136h-61.143v-325.137h-57.14v325.137h-60.004v53.713h178.288v-53.713zM484.573 48h-50.857v30.864c-20.571-23.247-40.007-34.863-58.292-34.863-17.521 0-28.571 7.053-33.136 21.143-3.044 9.143-4.575 23.055-4.575 41.718v223.425h50.857v-208c0-12.185 0.192-18.856 0.576-20.001 1.143-8 5.14-11.999 12.001-11.999 10.283 0 21.147 8 32.572 23.999v215.999h50.857v-282.288zM678.861 132.575c0-27.808-1.711-46.868-5.124-57.158-6.493-20.939-20.007-31.417-40.576-31.417-18.287 0-35.998 10.478-53.151 31.417v-27.424h-50.849v378.856h50.849v-124c16.39 20.561 34.097 30.848 53.151 30.848 20.569 0 34.083-10.67 40.576-31.999 3.41-9.903 5.124-28.759 5.124-56.569v-112.554zM872.005 179.425h-102.283v-49.714c0-26.287 8.754-39.423 26.281-39.423 12.567 0 20.193 6.849 22.857 20.575 0.753 3.807 1.143 15.423 1.143 34.849h52v-7.425c0-18.672-0.39-29.714-1.145-33.15-1.135-10.273-5.124-20.561-11.999-30.848-13.714-20.193-34.303-30.288-61.727-30.288-26.273 0-46.848 9.717-61.711 29.137-11.042 14.096-16.562 36.192-16.562 66.288v98.864c0 30.094 5.328 52.19 15.986 66.286 14.865 19.424 35.246 29.137 61.159 29.137 25.529 0 45.733-9.713 60.57-29.137 10.3-14.096 15.431-36.192 15.431-66.286v-58.865zM605.709 287.424c-8.766 0-17.329-4.205-25.713-12.575v-171.993c8.382-8.378 16.946-12.567 25.713-12.567 14.849 0 22.296 12.753 22.296 38.288v120.56c-0.002 25.529-7.431 38.288-22.296 38.288zM795.435 287.424c-17.142 0-25.713-12.959-25.713-38.848v-26.287h51.423v26.287c0 25.903-8.574 38.848-25.711 38.848zM297.162 732v-154.863h57.14v154.863l69.132 228h-58.284l-38.848-150.287-40.576 150.287h-60.568c10.668-32.003 23.049-67.619 37.145-106.86 17.907-52.568 29.52-92.956 34.859-121.14zM500.004 573.136c26.287 0 46.472 9.715 60.568 29.143 10.672 14.096 16 36.575 16 67.427v100.005c0 30.472-5.342 52.764-16 66.861-14.096 19.428-34.281 29.143-60.568 29.143-25.531 0-45.533-9.715-60.004-29.143-10.662-14.096-15.996-36.389-15.996-66.861v-100.003c0-30.472 5.328-52.953 15.996-67.427 14.477-19.43 34.471-29.145 60.004-29.145zM475.428 779.999c0 26.287 8.192 39.431 24.576 39.431s24.568-13.144 24.568-39.431v-119.997c0-26.675-8.184-39.999-24.568-39.999s-24.576 13.332-24.576 39.999v119.997zM657.135 573.136c19.060 0 38.684 11.811 58.869 35.436v-31.429h52v285.142h-52v-217.713c-11.432-16.384-22.282-24.568-32.582-24.568-6.863 0-10.864 4.189-12.001 12.569-0.382 0.763-0.574 7.435-0.574 20.003v209.709h-52v-225.148c0-19.424 1.535-33.705 4.575-42.853 4.958-14.096 16.192-21.147 33.713-21.147z" />
<glyph unicode="&#xe94f;" glyph-name="learning1" d="M1007.66 889.191h-991.319c-9.026 0-16.34-7.314-16.34-16.34v-849.702c0-9.026 7.314-16.34 16.34-16.34h991.319c9.026 0 16.34 7.314 16.34 16.34v849.702c0 9.026-7.314 16.34-16.34 16.34zM991.319 856.511v-98.043h-958.638v98.043h958.638zM32.681 39.489v686.298h958.638v-686.298h-958.638zM876.936 807.489c0-9.025-7.316-16.34-16.34-16.34s-16.34 7.316-16.34 16.34c0 9.025 7.316 16.34 16.34 16.34s16.34-7.316 16.34-16.34zM953.191 807.489c0-9.025-7.316-16.34-16.34-16.34s-16.34 7.316-16.34 16.34c0 9.025 7.316 16.34 16.34 16.34s16.34-7.316 16.34-16.34zM800.681 807.489c0-9.025-7.316-16.34-16.34-16.34s-16.34 7.316-16.34 16.34c0 9.025 7.316 16.34 16.34 16.34s16.34-7.316 16.34-16.34zM724.426 513.362h130.723c9.026 0 16.34 7.314 16.34 16.34s-7.314 16.34-16.34 16.34h-130.723c-9.026 0-16.34-7.314-16.34-16.34s7.314-16.34 16.34-16.34zM724.426 415.319h130.723c9.026 0 16.34 7.314 16.34 16.34s-7.314 16.34-16.34 16.34h-130.723c-9.026 0-16.34-7.314-16.34-16.34s7.314-16.34 16.34-16.34zM724.426 317.277h130.723c9.026 0 16.34 7.314 16.34 16.34s-7.314 16.34-16.34 16.34h-130.723c-9.026 0-16.34-7.314-16.34-16.34s7.314-16.34 16.34-16.34zM724.426 219.234h130.723c9.026 0 16.34 7.314 16.34 16.34s-7.314 16.34-16.34 16.34h-130.723c-9.026 0-16.34-7.314-16.34-16.34s7.314-16.34 16.34-16.34zM285.537 505.475c-4.817-2.976-7.75-8.236-7.75-13.9v-217.872c0-5.665 2.933-10.924 7.75-13.9 2.625-1.621 5.604-2.44 8.591-2.44 2.497 0 5.002 0.573 7.307 1.726l217.872 108.936c5.534 2.769 9.033 8.425 9.033 14.615s-3.497 11.848-9.033 14.615l-217.872 108.936c-5.066 2.534-11.079 2.264-15.898-0.715zM310.468 465.133l164.993-82.495-164.993-82.495v164.99zM446.638 584.17h-277.787c-9.026 0-16.34-7.314-16.34-16.34v-370.383c0-9.026 7.314-16.34 16.34-16.34h468.426c9.026 0 16.34 7.314 16.34 16.34v370.383c0 9.026-7.314 16.34-16.34 16.34h-125.277c-9.026 0-16.34-7.314-16.34-16.34s7.314-16.34 16.34-16.34h108.936v-337.702h-435.745v337.702h261.447c9.026 0 16.34 7.314 16.34 16.34s-7.314 16.34-16.34 16.34zM942.298 693.106h-860.596c-9.026 0-16.34-7.314-16.34-16.34v-588.255c0-9.026 7.314-16.34 16.34-16.34h708.085c9.026 0 16.34 7.314 16.34 16.34s-7.314 16.34-16.34 16.34h-691.745v555.574h827.915v-555.574h-70.809c-9.026 0-16.34-7.314-16.34-16.34s7.314-16.34 16.34-16.34h87.149c9.026 0 16.34 7.314 16.34 16.34v588.255c0 9.026-7.314 16.34-16.34 16.34z" />
<glyph unicode="&#xe950;" glyph-name="team1" d="M903.44 485.48c-34.844 17.42-100.174 17.622-102.938 17.622-8.284 0-15-6.716-15-15s6.716-15 15-15c16.858-0.002 65.804-2.598 89.522-14.456 2.154-1.078 4.442-1.586 6.696-1.586 5.502 0 10.8 3.040 13.428 8.294 3.706 7.41 0.702 16.42-6.708 20.126zM978.224 271.918l-61.95 17.7c-2.674 0.764-4.542 3.24-4.542 6.022v20.678c5.040 3.492 9.848 7.4 14.342 11.762 21.78 21.136 33.774 49.486 33.774 79.83v28.534l5.99 11.978c6.574 13.15 10.048 27.872 10.048 42.572v77.3c0 8.284-6.716 15-15 15h-144.346c-52.488 0-95.192-42.704-95.192-95.192v-0.894c0-12.224 2.89-24.466 8.356-35.398l7.682-15.364v-24.5c0-38.828 19.134-73.666 48.116-94.63l0.004-21.672c0-3.342 0-4.726-12.386-8.266l-30.228-8.636-87.442 31.796c0.314 4.126-1.078 8.322-4.088 11.484l-27.942 29.356v49.28c2.954 2.434 5.866 4.934 8.688 7.578 35.25 33.040 55.466 79.688 55.466 127.982v39.356c10.644 23.162 16.038 47.672 16.038 72.914v160.38c0 8.284-6.716 15-15 15h-224.538c-79.020 0-143.306-64.288-143.306-143.306v-32.078c0-25.242 5.394-49.752 16.038-72.914v-33.862c0-56.072 24.932-106.588 64.154-139.892v-50.44l-27.942-29.356c-3.010-3.162-4.402-7.358-4.088-11.484l-92.29-33.558c-6.688-2.432-12.902-5.726-18.544-9.716l-14.492 7.246c43.14 18.778 56.806 45.188 57.462 46.5 2.112 4.222 2.112 9.194 0 13.416-10.814 21.628-12.124 61.27-13.176 93.122-0.35 10.604-0.682 20.622-1.316 29.542-5.114 71.948-59.81 126.206-127.23 126.206s-122.118-54.256-127.23-126.206c-0.634-8.922-0.966-18.94-1.316-29.546-1.052-31.85-2.364-71.488-13.176-93.116-2.112-4.222-2.112-9.194 0-13.416 0.656-1.312 14.294-27.668 57.52-46.468l-40.254-20.126c-21.52-10.768-34.888-32.398-34.888-56.456v-110.818c0-8.284 6.716-15 15-15s15 6.716 15 15v110.818c0 12.624 7.014 23.974 18.304 29.62l50.126 25.062 17.436-16.57c12.192-11.586 27.832-17.376 43.478-17.376 15.642 0 31.29 5.794 43.478 17.376l17.434 16.568 16.344-8.172c-7.696-12.314-12.064-26.754-12.064-41.88v-115.45c0-8.284 6.716-15 15-15s15 6.716 15 15v115.45c0 20.592 13.002 39.156 32.356 46.194l97.304 35.382 40.506-60.762c5.178-7.768 13.476-12.75 22.766-13.67 1.036-0.102 2.066-0.152 3.094-0.152 8.196 0 16.046 3.226 21.914 9.092l24.712 24.712v-156.248c0-8.284 6.716-15 15-15s15 6.716 15 15v156.248l24.712-24.712c5.866-5.868 13.716-9.094 21.914-9.094 1.026 0 2.058 0.050 3.092 0.152 9.292 0.92 17.59 5.902 22.768 13.67l40.508 60.76 97.302-35.382c19.352-7.038 32.356-25.602 32.356-46.194v-115.45c0-8.284 6.716-15 15-15s15 6.716 15 15v115.45c0 20.856-8.286 40.416-22.186 54.882l3.706 1.058c3.738 1.068 8.838 2.53 13.958 5.040l38.298-38.298v-138.132c0-8.284 6.716-15 15-15s15 6.716 15 15v138.132l38.032 38.032c2.022-1.028 4.146-1.896 6.382-2.534l61.952-17.7c14.14-4.040 24.018-17.134 24.018-31.842v-124.088c0-8.284 6.716-15 15-15s15 6.716 15 15v124.088c0 28.036-18.824 52.994-45.776 60.696zM96.23 298.412c-28.058 10.096-42.132 23.556-48.14 30.906 4.096 10.708 6.752 22.972 8.55 35.918 8.272-19.834 22.126-36.766 39.59-48.846v-17.978zM182.16 257.816c-12.794-12.156-32.836-12.154-45.626 0.002l-13.95 13.256c2.354 4.41 3.648 9.41 3.648 14.648v15.988c10.464-3.27 21.588-5.034 33.116-5.034 11.514 0 22.632 1.772 33.114 5.024l-0.002-15.976c0-5.24 1.292-10.242 3.648-14.654l-13.948-13.254zM159.352 326.676c-44.792 0-81.23 36.44-81.23 81.23 0 8.284-6.716 15-15 15-0.84 0-1.66-0.086-2.462-0.22 0.044 1.29 0.086 2.582 0.13 3.86 0.334 10.314 0.656 20.056 1.25 28.412 1.916 26.952 12.686 51.788 30.326 69.936 17.798 18.312 41.586 28.396 66.982 28.396s49.182-10.084 66.982-28.396c17.64-18.148 28.41-42.984 30.326-69.936 0.592-8.354 0.916-18.094 1.256-28.406 0.030-0.886 0.060-1.784 0.090-2.676-16.32 25.144-41.524 43.674-74.090 54.138-30.086 9.666-55.962 9.068-57.054 9.040-3.928-0.11-7.656-1.754-10.382-4.582l-27.064-28.068c-5.75-5.964-5.578-15.46 0.386-21.21s15.46-5.576 21.21 0.386l22.52 23.354c19.394-0.948 81.788-8.204 106.054-61.638-6.106-39.376-39.95-68.62-80.23-68.62zM222.458 298.362l0.002 17.89c17.45 12.014 31.324 28.914 39.602 48.898 1.798-12.916 4.452-25.152 8.54-35.836-5.974-7.28-20.114-20.86-48.144-30.952zM366.806 541.71v37.216c0 2.258-0.51 4.488-1.492 6.522-9.652 19.988-14.546 41.196-14.546 63.036v32.076c0 62.478 50.83 113.306 113.306 113.306h209.538v-145.384c0-21.84-4.894-43.048-14.546-63.036-0.982-2.034-1.492-4.264-1.492-6.522v-42.71c0-40.622-16.33-78.3-45.982-106.094-3.702-3.468-7.544-6.72-11.516-9.75-0.088-0.060-0.172-0.126-0.258-0.188-27.778-21.090-61.802-31.34-97.334-29.038-76.082 4.926-135.678 71.062-135.678 150.566zM451.264 239.888c-0.104-0.104-0.346-0.35-0.836-0.298-0.488 0.048-0.68 0.334-0.762 0.458l-46.65 69.976 15.012 15.774 70.77-48.374-37.534-37.536zM512.19 297.774l-81.23 55.524v28c21.018-11.362 44.552-18.468 69.582-20.088 3.954-0.256 7.884-0.382 11.802-0.382 28.682 0 56.286 6.856 81.076 19.87v-27.4l-81.23-55.524zM574.714 240.044c-0.082-0.124-0.274-0.41-0.762-0.458-0.49-0.062-0.73 0.196-0.836 0.298l-37.534 37.534 70.77 48.376 15.014-15.774-46.652-69.976zM848.616 252.7l-34.040 34.038c0.594 2.698 0.93 5.652 0.928 8.91l-0.002 6.33c9.446-3.1 19.402-4.94 29.704-5.248 1.156-0.036 2.302-0.052 3.454-0.052 11.384 0 22.496 1.72 33.072 5.002v-6.040c0-2.992 0.376-5.924 1.084-8.742l-34.2-34.198zM905.182 349.608c-15.898-15.428-36.9-23.576-59.074-22.892-43.408 1.302-78.722 39.536-78.722 85.226v28.042c0 2.33-0.542 4.626-1.584 6.708l-9.266 18.532c-3.394 6.79-5.188 14.39-5.188 21.982v0.894c0 35.948 29.246 65.192 65.192 65.192h129.346v-62.3c0-10.068-2.38-20.15-6.882-29.156l-7.572-15.144c-1.042-2.084-1.584-4.378-1.584-6.708v-32.076c0-22.16-8.76-42.864-24.666-58.3zM944.846 198.372c-8.284 0-15-6.716-15-15v-96.23c0-8.284 6.716-15 15-15s15 6.716 15 15v96.23c0 8.282-6.716 15-15 15zM79.154 178.544c-8.284 0-15-6.716-15-15v-76.402c0-8.284 6.716-15 15-15s15 6.716 15 15v76.402c0 8.282-6.716 15-15 15zM635.064 643.050c-56.732 56.732-175.43 45.886-223.834 38.59-15.246-2.298-26.31-15.2-26.31-30.678v-34.556c0-8.284 6.716-15 15-15s15 6.716 15 15v34.558c0 0.51 0.336 0.946 0.784 1.014 19.334 2.914 57.7 7.41 97.45 4.76 46.776-3.114 80.656-14.856 100.698-34.9 5.858-5.858 15.356-5.858 21.212 0 5.858 5.858 5.858 15.356 0 21.212zM335.768 166.294c-8.284 0-15-6.716-15-15v-64.154c0-8.284 6.716-15 15-15s15 6.716 15 15v64.154c0 8.282-6.716 15-15 15zM688.612 166.294c-8.284 0-15-6.716-15-15v-64.154c0-8.284 6.716-15 15-15s15 6.716 15 15v64.154c0 8.282-6.716 15-15 15z" />
<glyph unicode="&#xe951;" glyph-name="file1" d="M768 533.333h-426.667c-9.421 0-17.067-7.629-17.067-17.067s7.646-17.067 17.067-17.067h426.667c9.421 0 17.067 7.629 17.067 17.067s-7.646 17.067-17.067 17.067zM341.333 635.733h170.667c9.421 0 17.067 7.629 17.067 17.067s-7.646 17.067-17.067 17.067h-170.667c-9.421 0-17.067-7.629-17.067-17.067s7.646-17.067 17.067-17.067zM768 396.8h-426.667c-9.421 0-17.067-7.629-17.067-17.067s7.646-17.067 17.067-17.067h426.667c9.421 0 17.067 7.629 17.067 17.067s-7.646 17.067-17.067 17.067zM768 260.267h-426.667c-9.421 0-17.067-7.629-17.067-17.067s7.646-17.067 17.067-17.067h426.667c9.421 0 17.067 7.629 17.067 17.067s-7.646 17.067-17.067 17.067zM768 123.733h-426.667c-9.421 0-17.067-7.629-17.067-17.067s7.646-17.067 17.067-17.067h426.667c9.421 0 17.067 7.629 17.067 17.067s-7.646 17.067-17.067 17.067zM836.267 711.066v248.934h-733.867v-938.667h85.333v-85.333h733.867v689.732l-85.333 85.333zM682.667 816.401l180.668-180.668h-180.668v180.668zM136.533 55.467v870.4h665.6v-180.668l-129.468 129.468h-484.932v-819.2h-51.2zM221.867-29.867v870.4h426.667v-238.933h238.933v-631.467h-665.6z" />
<glyph unicode="&#xe952;" glyph-name="folder" d="M981.163 499.2h-59.563v106.974c0 25.702-20.924 46.626-46.626 46.626h-21.641v307.2h-682.667v-34.133h-51.2v-34.133h-51.2v-119.467h-21.641c-25.702 0-46.626-20.924-46.626-46.626v-745.591h0.102c-0.085-9.609 2.901-19.012 8.909-26.88 8.363-10.923 21.026-17.169 34.765-17.169h763.887c19.746 0 37.12 13.312 41.796 30.942l174.541 478.515v3.021c0 29.389-18.022 50.722-42.837 50.722zM874.974 618.667c6.895 0 12.493-5.598 12.493-12.493v-106.974h-34.133v119.467h21.641zM819.2 925.867v-426.667h-601.924c-3.977 0-7.799-0.666-11.503-1.673-0.307-0.085-0.666-0.051-0.973-0.137v428.476h614.4zM170.667 891.733v-436.651l-1.075-2.953-15.991-43.827v483.43h17.067zM102.4 857.6h17.067v-542.891l-17.067-46.78v589.67zM34.133 725.641c0 6.895 5.615 12.493 12.493 12.493h21.641v-562.227l-34.133-93.099v642.833zM816.947-22.767c-1.109-4.181-4.932-7.1-9.284-7.1h-763.887c-4.147 0-6.571 2.372-7.646 3.789-1.075 1.399-2.731 4.369-2.099 6.963l173.943 477.065c1.126 4.181 4.966 7.117 9.301 7.117h763.887c6.468 0 8.141-9.318 8.55-13.978l-172.766-473.856zM307.2 669.867h409.6c9.421 0 17.067 7.629 17.067 17.067s-7.646 17.067-17.067 17.067h-409.6c-9.421 0-17.067-7.629-17.067-17.067s7.646-17.067 17.067-17.067zM307.2 789.333h170.667c9.421 0 17.067 7.629 17.067 17.067s-7.646 17.067-17.067 17.067h-170.667c-9.421 0-17.067-7.629-17.067-17.067s7.646-17.067 17.067-17.067zM307.2 550.4h409.6c9.421 0 17.067 7.629 17.067 17.067s-7.646 17.067-17.067 17.067h-409.6c-9.421 0-17.067-7.629-17.067-17.067s7.646-17.067 17.067-17.067z" />
<glyph unicode="&#xe953;" glyph-name="list" d="M664.132 960h-553.199v-1024h802.133v775.066l-248.934 248.934zM674.133 901.734l180.668-180.668h-180.668v180.668zM145.067-29.867v955.733h494.933v-238.933h238.933v-716.8h-733.867zM725.333 601.6h-273.067c-9.421 0-17.067-7.629-17.067-17.067s7.646-17.067 17.067-17.067h273.067c9.421 0 17.067 7.629 17.067 17.067s-7.646 17.067-17.067 17.067zM390.4 649.062l-73.404-58.726-23.33 23.33c-6.673 6.673-17.459 6.673-24.132 0s-6.673-17.459 0-24.132l34.133-34.133c3.311-3.311 7.68-5.001 12.066-5.001 3.755 0 7.526 1.229 10.65 3.738l85.333 68.267c7.373 5.905 8.55 16.64 2.662 23.996-5.871 7.373-16.623 8.55-23.979 2.662zM725.333 413.867h-273.067c-9.421 0-17.067-7.629-17.067-17.067s7.646-17.067 17.067-17.067h273.067c9.421 0 17.067 7.629 17.067 17.067s-7.646 17.067-17.067 17.067zM390.4 461.329l-73.404-58.726-23.33 23.33c-6.673 6.673-17.459 6.673-24.132 0s-6.673-17.459 0-24.132l34.133-34.133c3.311-3.311 7.68-5.001 12.066-5.001 3.755 0 7.526 1.229 10.65 3.738l85.333 68.267c7.373 5.905 8.55 16.64 2.662 23.996-5.871 7.373-16.623 8.55-23.979 2.662zM725.333 226.133h-273.067c-9.421 0-17.067-7.629-17.067-17.067s7.646-17.067 17.067-17.067h273.067c9.421 0 17.067 7.629 17.067 17.067s-7.646 17.067-17.067 17.067zM390.4 273.596l-73.404-58.726-23.33 23.33c-6.673 6.673-17.459 6.673-24.132 0s-6.673-17.459 0-24.132l34.133-34.133c3.311-3.311 7.68-5.001 12.066-5.001 3.755 0 7.526 1.229 10.65 3.738l85.333 68.267c7.373 5.905 8.55 16.64 2.662 23.996-5.871 7.373-16.623 8.55-23.979 2.662z" />
</font>
</defs>
</svg>
